<svg xmlns="http://www.w3.org/2000/svg" width="18" height="18" viewBox="0 0 18 18">
  <path class="cls-1" d="M9,0A9.026,9.026,0,0,0,0,9a8.9,8.9,0,0,0,5.76,8.37,8.453,8.453,0,0,1,0-2.61c0.18-.72,1.08-4.5,1.08-4.5A2.618,2.618,0,0,1,6.57,9c0-1.26.72-2.16,1.62-2.16A1.113,1.113,0,0,1,9.36,8.1a15.593,15.593,0,0,1-.72,2.97,1.318,1.318,0,0,0,1.35,1.62c1.62,0,2.79-1.71,2.79-4.14A3.568,3.568,0,0,0,9,4.86,3.883,3.883,0,0,0,4.95,8.73a3.535,3.535,0,0,0,.63,2.07,0.331,0.331,0,0,1,.09.27,7.3,7.3,0,0,1-.27.99c0,0.18-.09.18-0.27,0.09a4.141,4.141,0,0,1-1.8-3.51c0-2.88,2.07-5.49,5.94-5.49a5.312,5.312,0,0,1,5.58,5.22c0,3.06-1.98,5.58-4.68,5.58a2.431,2.431,0,0,1-2.07-.99s-0.45,1.71-.54,2.16a8.038,8.038,0,0,1-1.08,2.34A5.75,5.75,0,0,0,9,18,9,9,0,0,0,9,0Z"/>
</svg>
