<svg xmlns="http://www.w3.org/2000/svg" width="21" height="12" viewBox="0 0 21 12">
  <path class="cls-1" d="M11.218,11.972c0.7,0,.7-0.963.7-1.335a1.471,1.471,0,0,1,1.4-1.332,6.76,6.76,0,0,1,2.8,2,1.422,1.422,0,0,0,1.4.669h2.1a1.4,1.4,0,0,0,1.4-1.335c0-.417-0.48-1.122-2.1-2.663-1.4-1.33-2.116-.645,0-3.329,1.289-1.635,2.227-3.116,2.067-3.544S17.238,0.043,16.818.65a24.716,24.716,0,0,0-2.1,3.331c-0.7,1.332-.775,1.993-1.4,1.993s-0.694-1.288-.694-1.993c0-2.206.33-3.76-.7-4H9.82a4.2,4.2,0,0,0-2.1.664,2.387,2.387,0,0,0-.7.666c0.205,0.027,1.4-.274,1.4.667v1.33s0,2.66-.7,2.66-2.1-2.66-3.492-4.658A1.175,1.175,0,0,0,2.825.65c-0.749,0-1.4.029-2.1,0.029S-0.061,1.1.033,1.316A21.268,21.268,0,0,0,5.094,9.369a7.156,7.156,0,0,0,5.43,2.6C10.869,11.984,10.524,11.972,11.218,11.972Z"/>
</svg>
