<svg xmlns="http://www.w3.org/2000/svg" width="16" height="16" viewBox="0 0 16 16">
  <defs>
    <style>
      .cls-1 {
        fill: #16181c;
        fill-rule: evenodd;
      }
    </style>
  </defs>
  <path id="Ellipse_1_copy" data-name="Ellipse 1 copy" class="cls-1" d="M15.952,11.3c-0.131,2.908-1.75,4.52-4.653,4.653C10.445,15.991,10.173,16,8,16s-2.445-.009-3.3-0.048C1.793,15.819.181,14.2,0.047,11.3,0.009,10.445,0,10.173,0,8S0.009,5.555.048,4.7C0.181,1.793,1.8.181,4.7,0.048,5.555,0.009,5.827,0,8,0s2.446,0.009,3.3.049C14.208,0.182,15.822,1.8,15.952,4.7,15.991,5.555,16,5.827,16,8S15.991,10.445,15.952,11.3ZM8,5a3,3,0,1,0,3,3A3,3,0,0,0,8,5Zm4.5-3A1.5,1.5,0,1,0,14,3.5,1.5,1.5,0,0,0,12.5,2Z"/>
</svg>
