<svg xmlns="http://www.w3.org/2000/svg" width="15" height="14" viewBox="0 0 15 14">
  <defs>
    <style>
      .cls-1 {
        fill: #16181c;
        fill-rule: evenodd;
      }
    </style>
  </defs>
  <path class="cls-1" d="M3.832,3.284A8.269,8.269,0,0,1,1.058.642,4.015,4.015,0,0,0,.63,2.455,3.422,3.422,0,0,0,2,5.366,3.079,3.079,0,0,1,.63,4.917a4,4,0,0,0,.68,2.27A2.881,2.881,0,0,0,3.066,8.465a4.377,4.377,0,0,1-.805.112,1.923,1.923,0,0,1-.544-0.094,3.5,3.5,0,0,0,1.062,1.774,2.612,2.612,0,0,0,1.8.709A5.507,5.507,0,0,1,.785,12.459a4.583,4.583,0,0,1-.771-0.038,7.76,7.76,0,0,0,4.729,1.588,7.544,7.544,0,0,0,3.315-.766,9.065,9.065,0,0,0,2.776-2.071,9.825,9.825,0,0,0,1.9-3.2,11.349,11.349,0,0,0,.709-4.023V3.5a7.243,7.243,0,0,0,1.538-1.866,7.668,7.668,0,0,1-1.768.578A3.2,3.2,0,0,0,14.553.25a6.893,6.893,0,0,1-1.947.822A2.661,2.661,0,0,0,10.4-.011,2.79,2.79,0,0,0,8.184,1.035a3.7,3.7,0,0,0-.891,2.482,3.079,3.079,0,0,0,.1.785V4.32A7.609,7.609,0,0,1,3.832,3.284Z"/>
</svg>
