<svg xmlns="http://www.w3.org/2000/svg" width="13" height="20" viewBox="0 0 13 20"><g><g><path d="M11.82 5.113c0 2.813-2.385 5.123-5.289 5.123s-5.289-2.31-5.289-5.123S3.627-.01 6.531-.01 11.82 2.3 11.82 5.113zm-3.111 0c0-1.206-.933-2.11-2.178-2.11-1.244 0-2.178 1.005-2.178 2.11 0 1.205 1.037 2.11 2.178 2.11 1.245 0 2.178-.905 2.178-2.11zm3.11 12.155c.623.603.623 1.507 0 2.11a1.537 1.537 0 0 1-2.177 0L6.74 16.565l-2.904 2.813c-.311.301-.726.502-1.141.502-.415 0-.83-.2-1.14-.502-.52-.603-.623-1.507 0-2.11l2.903-2.913c-1.867-.402-3.007-1.105-3.111-1.206-.519-.2-.726-.703-.726-1.205 0-.804.726-1.507 1.556-1.507.31 0 .622 0 .83.201.103 0 1.658 1.005 3.629 1.005 1.97 0 3.422-.905 3.422-.905.311-.2.622-.3.933-.3.83 0 1.556.702 1.556 1.506 0 .502-.208.904-.622 1.205-.208.1-1.349.905-3.215 1.306z"/></g></g></svg>