<svg xmlns="http://www.w3.org/2000/svg" width="83" height="19" viewBox="0 0 83 19"><g><g><path fill="#16181c" d="M4.466 5.384l-1.37 6.498H4.28l1.605-.076zm5.673 11.212c-.975 1.471-1.598 2.18-1.868 2.131-.234 0-.466-.296-.692-.888a47.183 47.183 0 0 1-.47-1.471l-.366-1.165-.288-1.04h-3.8l-.08.605c-.078.403-.13.799-.156 1.186l-.065 1.057-1.423 1.21c-.053.051-.367.269-.941.656.409-1.153.779-2.449 1.11-3.886l.732-3.185c.209-.92.46-1.996.757-3.235.156-.667.353-1.635.589-2.907L3.58 3.46l.25-1.43c.33-.333.857-.844 1.58-1.529.105-.1.204-.083.3.051.095.133.16.307.196.526l.143.952c.071.485.266 1.463.589 2.933l.836 3.86c.556 2.576 1.074 4.557 1.554 5.943.261.77.475 1.178.64 1.228l.366.126zm13.05.175l-.352.401-1.385 1.754-.248-1.352a82.169 82.169 0 0 1-1.045-7.899l-.431 1.278-.693 2.132-.3.803c-.157.435-.397.96-.718 1.58-.47.919-.911 1.377-1.32 1.377-.496 0-1.093-.668-1.79-2.006a31.48 31.48 0 0 1-1.032-2.106L13 10.804a57.475 57.475 0 0 0-.262 5.398l-.55.6c-.46.5-1.014 1.209-1.657 2.124l.391-4.302.236-2.302.548-5.182-.34-1.124c-.4-1.336-.6-2.282-.6-2.834 0-.284.055-.543.17-.777l.17-.276.745-.852.653-.78c.08.92.244 1.866.498 2.833.079.316.335 1.186.77 2.607.922 3.043 1.871 5.2 2.846 6.472.357.467.684.702.98.702.731 0 1.34-1.321 1.829-3.962a29.113 29.113 0 0 0 .495-5.49v-.701l1.49-1.606 1.189-1.355-.706 3.51-.222 1.078c.217 3.628.636 6.921 1.255 9.88.225 1.086.34 1.72.34 1.906 0 .116-.028.249-.08.4zM27.77 5.384l-1.37 6.498h1.185l1.604-.076zm5.674 11.212c-.976 1.471-1.599 2.18-1.869 2.131-.234 0-.465-.296-.692-.888a51.765 51.765 0 0 1-.47-1.471l-.366-1.165-.288-1.04h-3.8l-.079.605c-.079.403-.13.799-.156 1.186l-.066 1.057-1.423 1.21c-.053.051-.367.269-.94.656.408-1.153.778-2.449 1.109-3.886l.732-3.185c.209-.92.46-1.996.757-3.235.158-.667.353-1.635.589-2.907l.404-2.205.249-1.43c.33-.333.857-.844 1.58-1.529.105-.1.204-.083.3.051.095.133.161.307.196.526l.145.952c.069.485.264 1.463.587 2.933l.836 3.86c.558 2.576 1.075 4.557 1.555 5.943.261.77.474 1.178.64 1.228l.365.126zm1.88-11.734c-.122.183-.282.275-.482.275-.375 0-.684-.375-.928-1.126l-.078-.328c.191-.35.561-.91 1.11-1.68l.418-.5.183.374c.086.185.239.487.457.903.113.167.261.302.444.402zm.941 11.659a18.617 18.617 0 0 0-1.803 2.381c0-2.257-.004-3.652-.012-4.187l-.131-3.636c-.044-1.32-.223-1.98-.536-1.98a.578.578 0 0 0-.366.15l-.117.101-.183-.501.719-.779c.034-.031.322-.416.862-1.151.444-.603.713-.903.81-.903.244 0 .413.192.508.575.053.202.088.704.106 1.505l.09 3.936zm4.908-11.137l-1.37 6.498h1.185l1.604-.076zm5.673 11.212c-.976 1.471-1.597 2.18-1.868 2.131-.235 0-.466-.296-.693-.888a49.597 49.597 0 0 1-.47-1.471l-.366-1.165-.286-1.04H39.36l-.078.605a9.429 9.429 0 0 0-.157 1.186l-.065 1.057-1.424 1.21c-.053.051-.367.269-.94.656.408-1.153.778-2.449 1.11-3.886l.731-3.185c.209-.92.461-1.996.758-3.235.157-.667.352-1.635.588-2.907l.405-2.205.248-1.43c.33-.333.857-.844 1.58-1.529.105-.1.205-.083.301.051.095.133.161.307.196.526l.144.952c.07.485.266 1.463.587 2.933l.836 3.86c.558 2.576 1.076 4.557 1.555 5.943.261.77.474 1.178.64 1.228l.366.126zM55.86.624L54.5 3.183c-.217.4-.609.65-1.175.751a13.7 13.7 0 0 1-.64.051h-.797l-.039 3.009a137.78 137.78 0 0 0 .04 4.712c.025 1.488.073 2.95.143 4.387a23.504 23.504 0 0 0-2.22 2.909l.064-1.502V3.934c-.381 0-.958-.067-1.73-.2s-1.35-.2-1.732-.2l.72-1.255c.26-.419.527-.794.796-1.128L48.14.9l.196-.277L49.76.8c.096.017 1.097-.016 3.005-.1A75.55 75.55 0 0 1 55.86.625zm8.739 7.649v.424c0 2.092-.388 4.012-1.163 5.769l-.352.802c-.053.132-.196.401-.432.801-1.08 1.905-2.177 2.857-3.291 2.857-1.08 0-1.804-.466-2.17-1.402l-.613-1.58c-.453-1.17-.679-2.666-.679-4.487 0-1.489.34-2.924 1.019-4.314.27-.552.617-1.11 1.044-1.68l.184-.2.26.351c-.39.987-.587 2.132-.587 3.434 0 1.138.163 2.307.49 3.51.326 1.204.731 2.14 1.215 2.81.484.667.933 1.003 1.352 1.003.644 0 1.119-.534 1.424-1.606.235-.852.352-1.939.352-3.259 0-2.741-.46-4.956-1.384-6.645-.505-.934-1.045-1.468-1.62-1.604a1.753 1.753 0 0 0-.314-.024c-.27 0-.636.084-1.097.251l-.21.076-.169-.503.523-.577C59.426 1.328 60.235.752 60.81.752c.426 0 .849.158 1.267.475 1.114.85 1.846 2.114 2.194 3.785.218 1.054.327 2.141.327 3.26zm9.078 2.23c.035.266.052.543.052.827 0 1.07-.288 2.273-.862 3.612a9.647 9.647 0 0 1-1.045 1.854l-.47.553-.235.274-.222.227c-.574.586-1.128.876-1.658.876-.768 0-1.438-.459-2.013-1.377-.462-.704-.914-1.791-1.359-3.26-.252-.836-.413-1.93-.483-3.285 0-2.74.375-4.864 1.124-6.368a10.802 10.802 0 0 1 1.999-2.783c.496-.5 1.135-.828 1.92-.978a3.03 3.03 0 0 1 .56-.051l.733.153c.583.181.875.582.875 1.202 0 .3-.073.544-.22.726l-1.083 1.33-.338.377c-.166-.403-.444-.846-.835-1.33-.225-.284-.534-.426-.925-.426-.4 0-.756.242-1.069.727-.312.484-.527 1.103-.644 1.856-.118.75-.177 1.503-.177 2.256 0 .786.066 1.663.195 2.633l.119.876c.181 1.354.596 2.567 1.244 3.635.646 1.07 1.325 1.605 2.038 1.605.356 0 .632-.214.827-.64.195-.426.293-.98.293-1.667a8.01 8.01 0 0 0-.04-.752l-.09-.601c-.183-1.22-.623-2.015-1.32-2.382l-.144-.074.38-.577c.078-.152.321-.493.731-1.029.227-.3.505-.45.836-.45.662 0 1.098.81 1.306 2.43zm9.327-2.23v.424c0 2.092-.387 4.012-1.163 5.769l-.352.802c-.053.132-.196.401-.431.801-1.08 1.905-2.178 2.857-3.292 2.857-1.08 0-1.803-.466-2.169-1.402l-.614-1.58c-.452-1.17-.679-2.666-.679-4.487 0-1.489.34-2.924 1.019-4.314.27-.552.619-1.11 1.045-1.68l.183-.2.262.351c-.392.987-.589 2.132-.589 3.434 0 1.138.163 2.307.49 3.51.326 1.204.731 2.14 1.215 2.81.484.667.935 1.003 1.353 1.003.643 0 1.118-.534 1.424-1.606.234-.852.352-1.939.352-3.259 0-2.741-.462-4.956-1.385-6.645-.505-.934-1.045-1.468-1.62-1.604a1.733 1.733 0 0 0-.313-.024c-.27 0-.636.084-1.097.251l-.209.076-.17-.503.522-.577C77.83 1.328 78.64.752 79.216.752c.426 0 .849.158 1.267.475 1.116.85 1.846 2.114 2.195 3.785.217 1.054.326 2.141.326 3.26z"/></g></g></svg>