<svg xmlns="http://www.w3.org/2000/svg" width="124" height="120" viewBox="0 0 124 120">
  <path class="cls-1" d="M123.745,58.189a0.608,0.608,0,0,0-.061.932,1.607,1.607,0,0,1,.262,1.007q-0.3,3.1-.689,6.2a2.052,2.052,0,0,1-.5,1.033,0.88,0.88,0,0,0-.162,1.221,1.452,1.452,0,0,1,.18.834c-0.069.919-.151,1.841-0.308,2.748-0.124.708-.441,1.38-0.539,2.088a4.242,4.242,0,0,1-.813,2.49c-0.289,3.218-2.008,5.8-3.608,8.409-1.279,2.092-2.777,4.05-3.978,6.187a28.743,28.743,0,0,1-4.386,5.48c-1.267,1.353-2.537,2.708-3.865,4-1.257,1.223-2.591,2.364-3.89,3.543-0.458.415-.929,0.815-1.361,1.257a4.966,4.966,0,0,1-1.937,1.394,3.232,3.232,0,0,0-1.121,1.014,1.089,1.089,0,0,1-1.242.48,1.192,1.192,0,0,0-.876.181c-0.815.524-1.6,1.1-2.38,1.679a1.768,1.768,0,0,1-1.046.4,3.131,3.131,0,0,0-1.056.378c-1.23.555-2.452,1.129-3.681,1.682a1.394,1.394,0,0,1-.556.123,0.828,0.828,0,0,0-.866.5,0.729,0.729,0,0,1-.842.489,3.777,3.777,0,0,0-2.124.5,1.254,1.254,0,0,1-1.673-.021,0.811,0.811,0,0,0-.728-0.082,3.534,3.534,0,0,1-1.6.167c-0.434-.027-0.933-0.068-1,0.618a0.469,0.469,0,0,1-.3.189c-1.008.292-2.007,0.629-3.031,0.839a15.03,15.03,0,0,1-1.818.04c-1.013.076-2.021,0.273-3.033,0.287-2.66.036-5.323,0.06-7.981-.031a46.24,46.24,0,0,1-5.645-.527,62.8,62.8,0,0,1-10.305-2.314,82.988,82.988,0,0,1-11.028-4.6,28.191,28.191,0,0,1-3.808-2.484c-2.426-1.782-4.806-3.63-7.208-5.447-0.256-.192-0.542-0.344-0.811-0.515a1.7,1.7,0,0,1-.481-0.319c-1.077-1.463-2.582-2.546-3.483-4.169a7.89,7.89,0,0,0-.566-0.8,2.307,2.307,0,0,0-2.2-1.134,0.586,0.586,0,0,1-.765-0.605,2.31,2.31,0,0,0-1.819-2.054,1.642,1.642,0,0,1-.947-0.736,3.419,3.419,0,0,1-.6-2.219c0.042-1.548-.5-2.141-1.858-2.189-0.865-.03-0.854-0.032-1.068-0.953a1.368,1.368,0,0,0-.315-0.58A8.812,8.812,0,0,1,5.922,80,5.409,5.409,0,0,0,5.115,77.7a6.763,6.763,0,0,1-.594-1.233c-0.156-.388-0.35-0.515-0.732-0.29-0.257.151-.55,0.492-0.849,0.153-0.348-.391.146-0.606,0.239-0.911a15.691,15.691,0,0,0,.313-1.831c0.067-.379.174-0.749,0.267-1.123A0.378,0.378,0,0,0,3.8,72.373C3.517,71.53,4.169,71,4.4,70.32a6.381,6.381,0,0,0,.166-1.937c0.01-1.215-.018-2.43-0.042-3.645a16.4,16.4,0,0,0-.092-1.66,0.529,0.529,0,0,0-.424-0.26,0.883,0.883,0,0,1-.84-0.683,6.655,6.655,0,0,0-.5-1.066c-0.31-.467-0.348-0.8.184-1.123a0.894,0.894,0,0,0,.238-1.085A4.418,4.418,0,0,1,3.518,56a2.2,2.2,0,0,1,.907-0.962A2.738,2.738,0,0,0,5.769,53.3a25.435,25.435,0,0,0,.515-4.139,4.966,4.966,0,0,1,.156-0.873c0.445-1.354.866-2.718,1.386-4.041,0.271-.685.808-1.26,1.094-1.943A82.265,82.265,0,0,1,14.4,30.871c0.883-1.44,1.517-3.039,2.354-4.514a27.187,27.187,0,0,1,1.717-2.382,59.578,59.578,0,0,1,5.825-6.7c0.7-.718,1.5-1.334,2.221-2.035a4.453,4.453,0,0,0,.793-1.08,2.063,2.063,0,0,1,1.286-1.2,2.1,2.1,0,0,0,1.546-1.6,1.525,1.525,0,0,1,1.555-1.233A4.814,4.814,0,0,0,34.177,9.2c1.605-1.025,3.288-1.92,4.934-2.878a39.449,39.449,0,0,1,6.508-3.173C46.407,2.868,47.2,2.614,48,2.374c0.358-.108.777-0.439,1.04,0.176a0.309,0.309,0,0,0,.265.052,15.593,15.593,0,0,0,2.845-.839,7.2,7.2,0,0,1,2.157-.726,6.571,6.571,0,0,1,3.322-.006A0.578,0.578,0,0,0,58.15.907a0.978,0.978,0,0,1,1.387-.15,0.55,0.55,0,0,0,.449.055A2.954,2.954,0,0,1,61.849.745a3.962,3.962,0,0,0,1.975-.24,6.113,6.113,0,0,1,2.9-.51q3.367,0.038,6.73.229A32.559,32.559,0,0,1,82.063,2.16a68.376,68.376,0,0,1,8.8,3.686C92.759,6.805,94.591,7.9,96.4,9.009c1.956,1.195,3.864,2.47,5.784,3.725a19.794,19.794,0,0,1,5.185,5.1c1.147,1.59,2.2,3.261,3.461,4.75a26.519,26.519,0,0,1,2.616,3.879c0.82,1.416,1.78,2.746,2.641,4.136a29.153,29.153,0,0,1,3.687,8.766c0.618,2.66,1.456,5.267,2.127,7.917a38.687,38.687,0,0,1,1.526,8.936,1.523,1.523,0,0,0,.307.976A0.6,0.6,0,0,1,123.745,58.189ZM10.264,48.929a1.54,1.54,0,0,0-.311.446c-0.344,1.2-.645,2.409-1,3.605a0.508,0.508,0,0,0,.352.752c0.452,0.146.572-.193,0.653-0.514q0.444-1.763.85-3.538A0.582,0.582,0,0,0,10.264,48.929Zm0.671,27.238a12.189,12.189,0,0,1-.573-2.893,22.348,22.348,0,0,0-.272-2.453,41.966,41.966,0,0,1-.831-8.234A1.352,1.352,0,0,0,9.242,62.1a0.483,0.483,0,0,0-.317-0.277,0.472,0.472,0,0,0-.376.209,1.594,1.594,0,0,0-.09.578c-0.061.919-.114,1.838-0.179,2.9,0.208,2.618.232,5.4,1.257,8.022a3.254,3.254,0,0,1,.123.677,31.606,31.606,0,0,0,1.41,6.745c0.6,1.585.846,3.323,1.942,4.7a2.961,2.961,0,0,1,.29.727,4.382,4.382,0,0,0,.486,1.066,2.455,2.455,0,0,0,.971.732c0.481,0.186.69-.059,0.5-0.552-0.252-.639-0.565-1.252-0.862-1.872a24.572,24.572,0,0,1-1.268-2.647C12.347,80.811,11.7,78.467,10.935,76.166Zm108.415-29c-0.316-1.343-.592-2.7-0.969-4.023-0.368-1.292-.859-2.546-1.266-3.828-0.386-1.218-.741-2.45-1.09-3.68a1.41,1.41,0,0,0-.816-1.024,0.838,0.838,0,0,1-.482-0.473c0.163-1.2-1.2-1.667-1.208-2.765a0.579,0.579,0,0,0-.207-0.2c-0.464-.438-0.935-0.868-1.385-1.319a0.587,0.587,0,0,1-.184-0.433,1.463,1.463,0,0,0-.585-1.353c-0.283-.351-0.858-0.659-0.511-1.337,0.134-.261-0.1-0.293-0.324-0.258a1.3,1.3,0,0,1-.774.037,2.193,2.193,0,0,1-.521-0.808,1.834,1.834,0,0,1-.042-0.389,2.967,2.967,0,0,0-1.858-2.436,2.245,2.245,0,0,1-1.055-.8c-0.964-1.19-1.972-2.342-2.982-3.489a7.581,7.581,0,0,0-.939-0.848c-0.233-.187-0.411-0.018-0.358.2a3.321,3.321,0,0,0,.44,1.068c0.767,1.139,1.586,2.24,2.353,3.378a5.005,5.005,0,0,1,.429.919,3.878,3.878,0,0,1,.775.642c1.144,1.579,2.256,3.179,3.375,4.777a1.864,1.864,0,0,1,.227.432,0.326,0.326,0,0,1-.032.268,0.258,0.258,0,0,1-.244.025,2.857,2.857,0,0,1-1.7-1.3c-0.695-1.582-1.4-2.683-2.172-4.23l-0.279-.55a19.893,19.893,0,0,1-2.684-2.61c-1.035-.981-1.976-2.066-3-3.066a5.445,5.445,0,0,0-1.448-1.1,25.272,25.272,0,0,1-3.781-1.873c-1.023-.7-2.128-1.272-3.2-1.894a5.644,5.644,0,0,0-.645-0.321q-2.18-.911-4.364-1.808c-1.392-.569-2.763-1.216-4.19-1.672C79.3,8.283,76.91,7.666,74.539,6.972A2.9,2.9,0,0,1,73.6,6.521c-0.558-.433-0.538-0.54.019-1.024,0.7-.61.66-0.908-0.2-1.282a2.4,2.4,0,0,0-.629-0.154C71.158,3.924,69.529,3.715,67.9,3.7a53.512,53.512,0,0,0-9.785.35c-2.9.5-5.84,0.8-8.757,1.219a7.037,7.037,0,0,0-1.365.451,0.7,0.7,0,0,0-.55.718,0.988,0.988,0,0,1-.708.949c-0.286.149-.579,0.283-0.865,0.431-1.8.931-3.592,1.892-5.412,2.787-0.892.44-1.835,0.771-2.761,1.131a2.479,2.479,0,0,1-.522.046,0.149,0.149,0,0,1-.092-0.263,2.571,2.571,0,0,1,.266-0.2c0.417-.243,1.082-0.374,1.487-0.638a0.5,0.5,0,0,0,.125-0.467,0.528,0.528,0,0,0-.424-0.237,1.332,1.332,0,0,0-.529.214c-1.242.648-2.5,1.273-3.719,1.961a16.054,16.054,0,0,0-2.065,1.424,1.061,1.061,0,0,0-.491,1.324,0.6,0.6,0,0,1-.4.782,2.267,2.267,0,0,0-1.065,1.881,0.6,0.6,0,0,1-.467.65,1.291,1.291,0,0,0-.456.462,3.266,3.266,0,0,1-.416.532c-0.693.529-1.419,1.012-2.107,1.547a3.632,3.632,0,0,1-1.948.757,8.723,8.723,0,0,0-.944.182,0.555,0.555,0,0,0-.158.1,0.48,0.48,0,0,0,.184.126q1.155,0.045,2.308.071a4.067,4.067,0,0,0,2.366-.726c1.287-.863,2.52-1.812,3.784-2.712,0.841-.6,1.683-1.2,2.549-1.758,1.112-.721,2.248-1.4,3.372-2.1,0.09-.057.649-0.5,0.727-0.574a2.442,2.442,0,0,0,.4.026,8.251,8.251,0,0,0,3.464-1.626,0.9,0.9,0,0,0,.119-0.153c0-.027.181-0.27,0.188-0.3a1.467,1.467,0,0,0-.44.183c-0.376.179-.741,0.386-1.115,0.574-0.747.379-1.5,0.749-2.246,1.128a2.008,2.008,0,0,0-.37.166,8.693,8.693,0,0,0-.854.387c-0.238.1-.46,0.235-0.7,0.327a1.037,1.037,0,0,1-1.18-.047,1.11,1.11,0,0,1,.183-1.276,1.039,1.039,0,0,1,.248-0.3,15.993,15.993,0,0,1,1.792-1.152c2.892-1.413,5.8-2.786,8.711-4.167a4.016,4.016,0,0,1,.727-0.214q2.331-.6,4.663-1.181c0.442-.111.887-0.209,1.336-0.288,0.9-.157,1.8-0.291,2.7-0.432a3.4,3.4,0,0,1,.758-0.078,12.6,12.6,0,0,0,3.146-.21,4.934,4.934,0,0,1,1.8.078,0.807,0.807,0,0,1,.453,1.259,1.135,1.135,0,0,1-.935.605c-1.465.144-2.929,0.324-4.4,0.439A32.281,32.281,0,0,0,47.785,9.99c-1.13.46-2.236,0.978-3.351,1.477a2.673,2.673,0,0,0-.414.252c-0.076.053-.4,0.223-0.463,0.287a2.606,2.606,0,0,0,.6-0.047,3.3,3.3,0,0,0,.536-0.215c1.058-.474,2.119-0.936,3.172-1.424a19.253,19.253,0,0,1,5-1.3,37.041,37.041,0,0,1,3.9-.564c2.336-.146,4.677-0.178,7.017-0.239,2.177-.058,4.329.556,6.517,0.281a1.789,1.789,0,0,1,.462.122c1.038,0.2,2.069.463,3.115,0.57a16.223,16.223,0,0,1,5.1,1.357c2.6,1.189,5.186,2.42,7.8,3.572a57.946,57.946,0,0,1,8.567,5.06c2.77,1.841,4.743,4.563,6.733,7.223,0.546,0.73,1.086,1.463,1.628,2.195,0.914,1.23,1.879,2.426,2.729,3.7,1.195,1.8,2.294,3.658,3.456,5.477,0.66,1.032.69,1.025,1.409,0.09,0.207-.268.3-0.14,0.413,0.066a1.517,1.517,0,0,1,.119.3c0.411,1.676.84,3.347,1.214,5.032,0.2,0.9.282,1.822,0.453,2.727a40.462,40.462,0,0,1,1.151,6.912c0.019,1.317.058,2.633,0.07,3.948a0.664,0.664,0,0,1-.171.433c-0.3.293-.132,0.474,0.049,0.749a3.324,3.324,0,0,1,.471,1.148,4.548,4.548,0,0,1,.011,1.266,3.329,3.329,0,0,1-.653,2.364,1.79,1.79,0,0,0-.234,1.827,0.857,0.857,0,0,1-.007.934,3.962,3.962,0,0,1-.939,1.085,1.829,1.829,0,0,0-.585.847c-0.393,1.36-.713,2.74-1.09,4.1a7.808,7.808,0,0,1-.516,1.256c-0.3.62-.632,1.221-0.926,1.844a0.458,0.458,0,0,0,.031.409,0.72,0.72,0,0,0,1.145-.468c0.11-.514.2-1.034,0.351-1.538a0.556,0.556,0,0,1,.584-0.53,0.55,0.55,0,0,1,.523.584c0.075,0.516.068,1.048,0.151,1.557a2.963,2.963,0,0,1,.007.565,0.719,0.719,0,0,0,.04.2,0.5,0.5,0,0,0,.234-0.124,6.935,6.935,0,0,0,.5-1.775,7.806,7.806,0,0,1,.5-2.4,3.474,3.474,0,0,0,.18-0.562q0.824-4.865,1.633-9.731c0.067-.4.14-0.795-0.408-0.942a0.593,0.593,0,0,1-.2-0.461,2.577,2.577,0,0,1,1.35-2,0.723,0.723,0,0,1,1.15.543,3.653,3.653,0,0,1-.02,2.33,2.2,2.2,0,0,0-.081.843,5.126,5.126,0,0,1-.277,2.419,3.2,3.2,0,0,0-.338,1.632,25.206,25.206,0,0,1-.06,3.936,3.715,3.715,0,0,1-.892,2.335,2.271,2.271,0,0,0-.507.812c-0.336,1.271-.614,2.558-0.928,3.834a11.809,11.809,0,0,1-.472,1.6c-0.414,1.03-.876,2.041-1.326,3.055a10.762,10.762,0,0,1-.592,1.116c-0.572.911-1.143,1.823-1.751,2.708a1.509,1.509,0,0,1-1.477.9c-0.631-.092-0.715-0.191-0.43-0.825a3.639,3.639,0,0,0,.508-2.246,1.363,1.363,0,0,1,.315-0.9,6.223,6.223,0,0,0,.88-2.055c0.26-.893-0.009-1.955.758-2.693a0.251,0.251,0,0,0,0-.18,1.872,1.872,0,0,0-1.286-.93c-0.467-.036-0.417.423-0.587,0.665a3.823,3.823,0,0,0-.31.614,24.61,24.61,0,0,1-3.1,5.455,18.6,18.6,0,0,0-3.1,5.55c-0.266.778-.831,1.516-0.439,2.452a1.047,1.047,0,0,1-.306.673c-0.6.771-1.215,1.537-1.858,2.272a2.461,2.461,0,0,1-.895.7,3.47,3.47,0,0,0-1.384,1.013,21.938,21.938,0,0,1-1.613,1.548,0.586,0.586,0,0,1-.342.025,0.257,0.257,0,0,1-.019-0.171A17.177,17.177,0,0,1,97.2,94.671a1.245,1.245,0,0,0,.466-1.1,0.879,0.879,0,0,1,.281-0.546c0.706-.809,1.444-1.588,2.138-2.409a2.242,2.242,0,0,0,.6-1.624,1.6,1.6,0,0,0-.107-0.346,1.164,1.164,0,0,0-.332.157c-0.763.707-1.529,1.406-2.268,2.138a8.391,8.391,0,0,1-2.915,2.048c-0.126.046-1.721,1.051-2.25,1.3a0.177,0.177,0,0,1-.169-0.309c0.517-.355,1.98-1.5,2.1-1.6a7.1,7.1,0,0,1,.9-0.362,1.545,1.545,0,0,0,.528-0.4,7.542,7.542,0,0,1,2.6-2.332,4.134,4.134,0,0,0,.952-0.763,32.2,32.2,0,0,0,4.781-6.813c0.757-1.449,1.477-2.923,2.147-4.416a57.383,57.383,0,0,0,3.348-9.043A55.221,55.221,0,0,0,111.509,60a32.267,32.267,0,0,0-.442-9.358c-0.349-1.841-.674-3.692-1.088-5.519-0.592-2.621-1.07-5.251-2.457-7.647a70.345,70.345,0,0,0-3.849-6.172,4.46,4.46,0,0,0-1.288-1.164,2.88,2.88,0,0,1-1.077-1.179,7.378,7.378,0,0,0-.769-1.25c-0.7-.857-1.429-1.683-2.156-2.512a2.42,2.42,0,0,0-1.475-1.006,1.54,1.54,0,0,1-1.222-1.436c0.094-.565-0.2-0.62-0.569-0.666a3.667,3.667,0,0,1-1.706-.834,14.444,14.444,0,0,0-1.394-.818,1.294,1.294,0,0,1-.328-0.2,0.774,0.774,0,0,1-.09-0.3,0.593,0.593,0,0,1,.268,0c0.387,0.222.762,0.468,1.149,0.686a0.482,0.482,0,0,0,.244-0.041,0.462,0.462,0,0,0-.068-0.182,16.172,16.172,0,0,0-1.995-1.84,33.674,33.674,0,0,0-4.4-2.623c-2.59-1.213-5.272-2.218-7.9-3.358a25.837,25.837,0,0,0-6.946-1.88,12.667,12.667,0,0,0-1.531-.028c-0.477-.006-0.953.011-1.429-0.017-1.471-.087-2.94-0.232-4.413-0.28a42.706,42.706,0,0,0-10.172.824,17.586,17.586,0,0,1-2.824.318,1.444,1.444,0,0,0-1.217.658,1.757,1.757,0,0,1-.747.63c-2.827,1.2-5.683,2.3-8.436,3.7A56.357,56.357,0,0,0,30.8,23.043a42.87,42.87,0,0,0-7.241,7.209,56.132,56.132,0,0,0-3.517,6.008,7.044,7.044,0,0,0-.9,1.626,68.1,68.1,0,0,1-2.723,7.385,24.467,24.467,0,0,0-1.323,5.26c-0.283,1.956-.469,3.928-0.68,5.895-0.153,1.444-.331,2.887-0.4,4.337a48.23,48.23,0,0,0-.078,5.83c0.165,2.164.59,4.311,0.965,6.451a6.408,6.408,0,0,0,1.531,3.773,1.232,1.232,0,0,1,.237.528,8.045,8.045,0,0,1,.242,2.524,9.252,9.252,0,0,1-.156,2.291,3.152,3.152,0,0,0,.368,1.4,3.912,3.912,0,0,1,.279,2.117,0.942,0.942,0,0,0,1.245,1.2,2.548,2.548,0,0,1,2.243.531c0.742,0.5,1.387,1.151,2.113,1.681,0.531,0.388.622,0.479,0.426,1.117s-0.432,1.243-.625,1.872c-0.1.336-.151,0.689-0.223,1.035,0.21-.3.421-0.593,0.628-0.89a2.124,2.124,0,0,1,.15-0.253c0.106-.11.569-1.552,0.93-1.552,1.071-.075-0.265.606-0.471,1.682a8.912,8.912,0,0,0-.127,1.479,3.4,3.4,0,0,0,1.667,2.951c0.513,0.343,1.148.371,1.087,1.237a1.161,1.161,0,0,0,.526.535c0.855,0.636,1.732,1.243,2.579,1.891,0.829,0.632.833,0.692,0.326,1.588a1.1,1.1,0,0,1-.418.349c-0.7.417-.7,0.417-0.1,1.024,0.068,0.068.136,0.137,0.206,0.206a25.327,25.327,0,0,0,5.469,3.837,14.479,14.479,0,0,0,2.76,1.142c0.817,0.262,1.022.053,0.971-.834-0.031-.513.193-0.472,0.515-0.34,1.158,0.474,2.325.927,3.474,1.424a11.236,11.236,0,0,0,4.691,1.274,14.483,14.483,0,0,1,2.648.413c0.346,0.059.686,0.189,1.032,0.214a2.554,2.554,0,0,0,.71-0.155,2.639,2.639,0,0,0-.418-0.794,3.78,3.78,0,0,0-1-.574c-0.5-.225-1.013-0.406-1.517-0.615a0.663,0.663,0,0,1-.281-0.2,4.832,4.832,0,0,1,.451-1.052,1.19,1.19,0,0,1,.609.112c1.747,0.543,3.491,1.094,5.235,1.64a1.472,1.472,0,0,1,.271.1,0.431,0.431,0,0,1,.111.143,0.42,0.42,0,0,1-.145.083c-0.385.012-.77,0.012-1.154,0.027a2.934,2.934,0,0,0-.381.055,1.311,1.311,0,0,0,.391.232c1.889,0.364,3.776.755,5.673,1.06a43.758,43.758,0,0,0,8.7.8,60.7,60.7,0,0,0,8.138-.724,36.569,36.569,0,0,0,4.38-1.1c2.851-.879,5.694-1.793,8.511-2.78a5.974,5.974,0,0,0,2.843-1.767,1.7,1.7,0,0,1,1.191-.489,3.309,3.309,0,0,0,2.912-1.558,1.578,1.578,0,0,1,1-.7c0.728-.169.811-0.309,0.487-1a0.72,0.72,0,0,1,.171-0.957q1.487-1.4,2.983-2.8a0.171,0.171,0,1,1,.259.216c-0.418.494-.849,0.979-1.283,1.461-0.257.283-.548,0.538-0.778,0.843a0.64,0.64,0,0,0-.06.484,0.733,0.733,0,0,0,.575.085,7.39,7.39,0,0,0,.752-0.606,6.339,6.339,0,0,1,1.126-.732,2.838,2.838,0,0,0,1.171-.82,2.582,2.582,0,0,1,.741-0.622,1.348,1.348,0,0,0,.751-1.163,1.245,1.245,0,0,1,1.257-1.193,1.286,1.286,0,0,0,.517-0.2,9.254,9.254,0,0,0,2.8-2.91,32.508,32.508,0,0,1,4.146-5.835,2.314,2.314,0,0,0,.559-0.981,6.555,6.555,0,0,1,1.609-2.538,6.913,6.913,0,0,0,1.19-1.655,26.817,26.817,0,0,0,1.677-4.281c0.565-2.195.9-4.45,1.31-6.685a4.406,4.406,0,0,0-.024-1.087,0.19,0.19,0,0,0-.379-0.033c-0.1.38-.168,0.773-0.279,1.151-0.511,1.77-.949,3.567-1.589,5.285-0.338.906-.685,1.81-1.01,2.724a1.438,1.438,0,0,1-.12.246,0.255,0.255,0,0,1-.465-0.068c-0.028-.1-0.054-0.2-0.073-0.306a1.194,1.194,0,0,1,.089-0.381c0.27-1.353.526-2.71,0.812-4.06,0.142-.675-0.046-1.492.719-1.927a0.35,0.35,0,0,0,.073-0.18c0.317-1.135.64-2.27,0.944-3.41a2.934,2.934,0,0,0,.01-0.587,7.315,7.315,0,0,1,.078-0.94c0.085-.451.266-0.889,0.315-1.342q0.4-3.736.753-7.474a11.415,11.415,0,0,0,.075-1.971,37.071,37.071,0,0,0-.98-6.936c-0.113-.414-0.136-0.782.524-0.68a0.583,0.583,0,0,0,.617-0.71A2.256,2.256,0,0,0,119.35,47.169Zm-1.876-1.283c-0.509-.033-0.535.163-0.448,0.568a3.767,3.767,0,0,1,.105.876,0.589,0.589,0,0,1-.347.721,0.864,0.864,0,0,1-.9-0.573,1.631,1.631,0,0,1,.063-0.846,0.487,0.487,0,0,0,0-.585c-0.632-.918-0.611-1.062.265-1.727a0.41,0.41,0,0,0,.031-0.721c-0.907-.49-0.8-1.434-0.969-2.218a1.053,1.053,0,0,1,1.3-1.233,0.824,0.824,0,0,1,.532.445c0.415,1.416.782,2.844,1.162,4.27a0.971,0.971,0,0,1,.015.2A0.687,0.687,0,0,1,117.474,45.886Zm-8-11.591a0.278,0.278,0,0,1,.108-0.087,0.266,0.266,0,0,1,.084.058c0.42,0.726.84,1.454,1.246,2.19a0.344,0.344,0,0,1-.122.224A3.746,3.746,0,0,1,109.474,34.3Zm-5.3-7.826a0.377,0.377,0,0,1,.317-0.17,2.366,2.366,0,0,1,1.034,1.452,0.4,0.4,0,0,1-.093.185A1.783,1.783,0,0,1,104.173,26.47Zm-1.661-1.258a5.659,5.659,0,0,1-.839-1.16,0.617,0.617,0,0,1,.714-0.832,1.737,1.737,0,0,1,.4.278c0.236,0.263.434,0.563,0.657,0.843a0.6,0.6,0,0,1-.084.872A0.527,0.527,0,0,1,102.512,25.212Zm-1.361-2.7a0.708,0.708,0,0,1-.672-0.791,0.725,0.725,0,0,1,.744-0.62,0.745,0.745,0,0,1,.684.7A0.713,0.713,0,0,1,101.151,22.509ZM68.4,6.38a7.28,7.28,0,0,1-1.447-.407,0.834,0.834,0,0,1-.351-0.7,1.519,1.519,0,0,1,.468-0.592c0.691,0.142,1.225.211,1.733,0.369A0.7,0.7,0,1,1,68.4,6.38ZM108.328,89.13a0.937,0.937,0,0,1-.751.214,1.059,1.059,0,0,1-.366-0.506,2.126,2.126,0,0,1,1.415-1.7,0.769,0.769,0,0,1,.609.3,0.843,0.843,0,0,1-.057.708A4.305,4.305,0,0,1,108.328,89.13Zm-0.211,2.137a0.433,0.433,0,0,1,.131.045,0.61,0.61,0,0,1,.061,1.008,0.783,0.783,0,0,1-.242.137,0.542,0.542,0,0,1-.595-0.6A0.6,0.6,0,0,1,108.117,91.268Zm-7.213,4.38a35.27,35.27,0,0,1-8.582,6.6,4.6,4.6,0,0,1-2,.879,1,1,0,0,0-.4.23,21,21,0,0,1-6.69,2.863,1.946,1.946,0,0,1-.29.032,0.224,0.224,0,0,1-.142-0.035c-0.818-.525-1.495.281-2.275,0.455a6.442,6.442,0,0,1-.931.193c-0.733.051-.809,0.018-1.026-0.709-0.093-.315-0.216-0.362-0.465-0.3-0.836.228-1.667,0.474-2.508,0.681a1.885,1.885,0,0,1-.933.069,2.049,2.049,0,0,0-1.519-.2c-0.258.11-.559-0.337-0.516-0.673,0.046-.362.5-0.756,0.732-0.569,0.484,0.387.682,0.006,1.029-.2a4.563,4.563,0,0,1,1.5-.54,35.326,35.326,0,0,0,6.9-2.039,39.482,39.482,0,0,0,7.8-4.222,4.266,4.266,0,0,1,1.305-.593,0.9,0.9,0,0,1,.742.271,0.767,0.767,0,0,1-.016.708,5.87,5.87,0,0,1-1.079,1.23,25.312,25.312,0,0,1-5.6,3.227c-0.672.3-1.374,0.533-2.05,0.831a0.287,0.287,0,0,0-.108.1,0.229,0.229,0,0,0,.2.357,0.308,0.308,0,0,0,.055-0.014c1.755-.706,3.5-1.426,5.254-2.146a1.233,1.233,0,0,0,.342-0.169,62.172,62.172,0,0,1,5.706-4.125c2.109-1.432,4.151-2.968,6.223-4.457a0.4,0.4,0,0,1,.075-0.062l0.386-.162a0.226,0.226,0,0,1,.305.25,2.356,2.356,0,0,1-.071.34A4.569,4.569,0,0,1,100.9,95.647ZM75.371,89.486q-1.248,0-2.456-3.094-0.094-.179-1.668-5.12l-1.3-4.058-1.02-3.619H55.448L55.167,75.7a33.043,33.043,0,0,0-.553,4.128l-0.233,3.681-5.048,4.216c-0.188.177-1.3,0.934-3.338,2.282a122.314,122.314,0,0,0,3.938-13.534l2.6-11.09q1.11-4.8,2.684-11.264,0.834-3.486,2.089-10.126l1.432-7.681,0.884-4.98c1.171-1.163,3.936-2.919,6.492-5.324a0.626,0.626,0,0,1,1.062.179c0.338,0.467-.314,1.071-0.189,1.831l0.508,3.314q0.376,2.537,2.088,10.216l2.965,13.444a186.652,186.652,0,0,0,5.513,20.694q1.388,4.02,2.273,4.277l1.3,0.438L82,82.061Q76.808,89.749,75.371,89.486Zm-13.5-46.467-4.857,22.63h4.2l5.693-.265ZM74.243,12.985A0.8,0.8,0,0,1,74,12.655a0.726,0.726,0,0,1,.308-0.138c0.534,0.068,1.068.152,1.6,0.26a1.237,1.237,0,0,1,.373.246l-0.329.212C75.308,13.147,74.772,13.09,74.243,12.985Zm-4.82,3.383a0.637,0.637,0,0,1,.7.628,0.552,0.552,0,0,1-.562.637,0.558,0.558,0,0,1-.648-0.555A0.609,0.609,0,0,1,69.423,16.368ZM70.641,13.7c-0.2-.017-0.554-0.029-0.9-0.081a0.924,0.924,0,0,1-.815-0.827,0.792,0.792,0,0,1,.611-0.781,4.812,4.812,0,0,0,.755-0.388,0.819,0.819,0,0,1,1.183.172c0.082,0.1.129,0.227,0.2,0.334a0.949,0.949,0,0,1,.209,1.16A1.149,1.149,0,0,1,70.641,13.7Zm-3.713-.872c-0.273.066-.555,0.089-0.832,0.13l-0.019-.115c-0.309.056-.614,0.132-0.924,0.16a0.932,0.932,0,0,1-1.063-.966,0.809,0.809,0,0,1,.922-0.881c0.6,0.008,1.207.094,1.81,0.15a0.811,0.811,0,0,1,.784.731A0.7,0.7,0,0,1,66.929,12.833ZM62.654,13a1.1,1.1,0,0,1-.884-0.99,0.948,0.948,0,0,1,1.014-.839,0.872,0.872,0,0,1,.818.9A1.024,1.024,0,0,1,62.654,13Zm-5.546.913a0.73,0.73,0,0,1-.4-1.261,4.551,4.551,0,0,1,1.185-.561,0.575,0.575,0,0,1,.19-0.013c0.413-.031.826-0.061,1.441-0.105,0.18,0,.561,0,0.943,0,0.305,0,.631.073,0.629,0.439a0.985,0.985,0,0,1-.307.73A6.088,6.088,0,0,1,57.108,13.914Zm-6.359,1.861a5.752,5.752,0,0,1-1.281.374,0.511,0.511,0,0,1-.391-0.312,0.909,0.909,0,0,1,.054-0.7,8.921,8.921,0,0,1,1.256-.766,2.8,2.8,0,0,1,.751.626A0.575,0.575,0,0,1,50.749,15.775Zm-4.307,7.474a0.858,0.858,0,0,1-.754-0.773,1.177,1.177,0,0,1,1.114-.9,0.8,0.8,0,0,1,.744.761A1.187,1.187,0,0,1,46.441,23.249Zm0.3,84.867a0.564,0.564,0,0,1-.2.769,1.168,1.168,0,0,1-1.56-.648c-0.074-.36.332-0.7,0.937-0.7A0.96,0.96,0,0,1,46.741,108.116Zm6.821-3.014a4.13,4.13,0,0,1,1.791-.184,63.978,63.978,0,0,0,8.12.761c1.21,0.054,2.425-.042,3.638-0.035a6.757,6.757,0,0,1,1.422.173,0.6,0.6,0,0,1,.593.645,1.163,1.163,0,0,1-.655.737,15.221,15.221,0,0,1-2.277.339c-0.444.043-.894,0.008-1.341,0.008a73.515,73.515,0,0,1-9.084-.74c-0.634-.081-1.263-0.216-1.889-0.351a1.122,1.122,0,0,1-.5-0.265C52.883,105.735,52.929,105.282,53.562,105.1Zm16.695,0.687c0.283,0.2.432,0.2,0.636-.033a0.234,0.234,0,0,1,.078-0.058,0.839,0.839,0,0,1,1.137.065,0.849,0.849,0,0,1-.125,1,0.89,0.89,0,0,1-1.08.381,1.087,1.087,0,0,0-.949-0.18,1.261,1.261,0,0,1-.626-0.4A0.7,0.7,0,0,1,70.257,105.789ZM97.134,25.928a3.146,3.146,0,0,1-.762.531c-0.273.075-.735-0.411-0.605-0.578a1.317,1.317,0,0,1,.733-0.467A1.706,1.706,0,0,1,97.134,25.928ZM41.026,106.971a0.7,0.7,0,0,1-.7-0.735,1.871,1.871,0,0,1,.471-0.56,0.794,0.794,0,0,1,.95.693A0.637,0.637,0,0,1,41.026,106.971Zm-5.946-.21a2.162,2.162,0,0,1-.625-0.682,0.639,0.639,0,0,1-.069-0.88,1.151,1.151,0,0,1,.759.017,2.2,2.2,0,0,1,.714.237,1.681,1.681,0,0,1,.371.386A0.92,0.92,0,0,1,35.081,106.761Zm-2.675-5.347a0.626,0.626,0,0,1-.671-0.656,0.734,0.734,0,0,1,.857-0.656,2.571,2.571,0,0,1,.485.706A0.563,0.563,0,0,1,32.406,101.414Zm-1.525-10.4a0.665,0.665,0,0,1-.131-0.8,3.281,3.281,0,0,0,.011-1.025,1.078,1.078,0,0,1,.53-1.2,0.813,0.813,0,0,1,1.04.453,4.653,4.653,0,0,1,.282.842,2.263,2.263,0,0,1-.759,1.624A0.769,0.769,0,0,1,30.881,91.01Zm0.828-63.252a0.454,0.454,0,0,1-.465-0.44,0.688,0.688,0,0,1,.454-0.708,0.535,0.535,0,0,1,.478.519A0.638,0.638,0,0,1,31.708,27.758Zm-2.251,2.851c-0.995,1.283-2.012,2.547-3.024,3.815a1.012,1.012,0,0,1-.205.2,0.734,0.734,0,0,1-1-1.076c1.047-1.269,2.077-2.557,3.157-3.8a1.515,1.515,0,0,1,.914-0.381,0.253,0.253,0,0,1,.165.062,0.633,0.633,0,0,1,.2.715A1.54,1.54,0,0,1,29.458,30.608Zm-4.113,4.671a1.068,1.068,0,0,1-.082.8,5.118,5.118,0,0,1-.852,1.153,0.869,0.869,0,0,1-.7.115,0.56,0.56,0,0,1-.244-0.3,2.864,2.864,0,0,1,.856-1.895A0.723,0.723,0,0,1,25.345,35.279ZM22.6,44.294c-0.391,1.042-.918,2.031-1.323,3.068a21.857,21.857,0,0,0-1.558,5.479c-0.129,1.164-.108,2.349-0.29,3.5a58.035,58.035,0,0,0-.8,6.862c-0.054,1.413.051,2.832,0.081,4.249,0,0.164-.028.332-0.011,0.493a0.688,0.688,0,0,1-.559.882,1.316,1.316,0,0,1-.951-0.484,1.959,1.959,0,0,1-.43-1.474,6.188,6.188,0,0,0,.007-0.89c0.019,0,.04,0,0.06-0.006-0.064-.588-0.141-1.174-0.187-1.762a3.194,3.194,0,0,1,.01-0.984,30.818,30.818,0,0,0,.371-4.422c0.132-1.339.427-2.659,0.667-3.983,0.269-1.487.511-2.981,0.85-4.453a20.322,20.322,0,0,1,1.7-4.918,26.755,26.755,0,0,0,1-2.566c0.217-.547.451-1.089,0.7-1.619a0.733,0.733,0,0,1,.932-0.493,0.747,0.747,0,0,1,.459.967A24.961,24.961,0,0,1,22.6,44.294Zm1.419,30.458a1,1,0,0,1,.609.383,3.111,3.111,0,0,1,.2.9,3.98,3.98,0,0,1-.284.888,0.644,0.644,0,0,1-.543.257,0.631,0.631,0,0,1-.449-0.4,9.322,9.322,0,0,1,.116-1.644A0.572,0.572,0,0,1,24.014,74.753Zm1.663-33.214a0.791,0.791,0,0,1,.708.772,0.949,0.949,0,0,1-.694.931A0.674,0.674,0,0,1,25,42.588,1.018,1.018,0,0,1,25.677,41.539ZM1.1,72.265a0.829,0.829,0,0,1-.577-0.809,0.873,0.873,0,0,1,.917-0.733,2.682,2.682,0,0,1,.477.743A0.889,0.889,0,0,1,1.1,72.265ZM1.65,85.473A1.134,1.134,0,0,1,.7,86.43a0.845,0.845,0,0,1-.692-0.917A1.084,1.084,0,0,1,1,84.63,0.8,0.8,0,0,1,1.65,85.473Zm3.465,1.363c-0.456-.521-0.135-0.808.224-1.119a0.882,0.882,0,0,1,.138-0.135,1.373,1.373,0,0,1,.694-0.326,1.265,1.265,0,0,1,.381.727,1.807,1.807,0,0,1-.028.587l0.094,0.023a13.652,13.652,0,0,1-.44,1.785,0.819,0.819,0,0,1-1.235.475,0.806,0.806,0,0,1-.057-1.269C5.066,87.35,5.368,87.125,5.115,86.836Zm5.831,11.646A1.525,1.525,0,0,1,12.2,99.658a0.677,0.677,0,0,1-.789.833,1.465,1.465,0,0,1-1.2-.984A0.7,0.7,0,0,1,10.947,98.482Zm3.81-1.139a0.733,0.733,0,0,1,.734.8c-0.069.617-.3,0.863-0.742,0.8a0.8,0.8,0,0,1-.6-0.975A0.577,0.577,0,0,1,14.757,97.343Zm15.678,10.642a7.372,7.372,0,0,1,.554.546c0.947,1.069,1.894,2.139,2.828,3.221a1.016,1.016,0,0,0,.922.4,2.444,2.444,0,0,1,1.022.146q7.212,2.7,14.416,5.443a7.109,7.109,0,0,1,.978.41,1.049,1.049,0,0,1,.664,1.093,0.919,0.919,0,0,1-1.013.721c-0.126.017-.254,0.019-0.437,0.033-0.789-.2-1.632-0.394-2.461-0.637-2.43-.713-4.883-1.36-7.27-2.2a56.882,56.882,0,0,1-5.281-2.335,2.692,2.692,0,0,1-.906-0.863c-1.372-1.858-2.72-3.738-4.076-5.611a0.471,0.471,0,0,1-.109-0.158,1.108,1.108,0,0,1,0-.259A0.394,0.394,0,0,1,30.434,107.985ZM53.242,118.3a1.8,1.8,0,0,1,1.171.881,1.333,1.333,0,0,1-1.2.61c-0.432.069-.5-0.218-0.56-0.49A0.948,0.948,0,0,1,53.242,118.3Z"/>
</svg>
