<svg xmlns="http://www.w3.org/2000/svg" width="13" height="18" viewBox="0 0 13 18"><g><g><path fill="#e00b24" d="M4.871-.001C6.913.838 9.744 3.325 8.82 6.514c-.297 1.028-1.51 2.832-1.16 3.625.648 1.46 2.77 1.131 2.931-.629.058-.627-.004-.996-.106-1.36 4.293 2.132 2.601 8.754-1.403 9.849.83-1.135 1.19-2.828.842-3.453-.254 1.278-1.868 1.837-3.212 1.078-1.64-.927-1.291-3.185-2.906-4.247-.11 1.655-1.24 2.78-.842 4.697.155.75.577 1.268.842 1.868h-.057C1.746 16.994.625 15.325.268 14.15-1.198 9.316 3.921 7.287 4.996 4.104 5.584 2.362 5.41 1.114 4.87 0z"/></g></g></svg>