<svg xmlns="http://www.w3.org/2000/svg" width="106" height="100" viewBox="0 0 106 100"><g><g><path d="M36.96 10.049c-.076-.011-.315.123-.375.151-.322.15-.634.323-.953.479-.64.316-1.282.624-1.92.94-.054.026-.274.092-.317.139.052.008.295.033.342.022 1.075-.26 2.095-.638 2.962-1.356.041-.034.069-.084.102-.127.004-.023.155-.225.16-.248zM8.51 41.153c-.294.999-.551 2.008-.852 3.005-.103.34-.021.526.301.627.386.122.49-.161.559-.428.253-.98.493-1.964.726-2.95.077-.32-.094-.578-.469-.626-.072.097-.22.22-.265.372zM8.152 61.29c.069.175.075.376.105.565.288 1.9.496 3.81 1.205 5.623.517 1.32.723 2.768 1.66 3.913.133.162.162.405.248.607.13.302.214.646.415.889.215.259.519.493.83.61.412.155.59-.05.425-.46-.216-.532-.483-1.043-.737-1.56-.363-.735-.817-1.438-1.084-2.206-.664-1.915-1.22-3.868-1.87-5.786a9.943 9.943 0 0 1-.49-2.411c-.057-.685-.1-1.374-.233-2.044-.448-2.268-.727-4.549-.71-6.863 0-.137.034-.289-.015-.406-.041-.102-.173-.224-.271-.232-.107-.007-.274.082-.322.175-.07.139-.067.318-.077.482-.052.765-.098 1.532-.154 2.418.178 2.182.199 4.5 1.075 6.686zm79.283-43.98c-.885-.818-1.69-1.722-2.56-2.556-.37-.353-.781-.706-1.239-.912-1.091-.493-2.22-.888-3.232-1.561-.875-.583-1.819-1.06-2.736-1.579a4.641 4.641 0 0 0-.551-.267 591.37 591.37 0 0 0-3.731-1.507c-1.19-.475-2.362-1.014-3.582-1.394-2.011-.629-4.057-1.143-6.084-1.721a2.52 2.52 0 0 1-.806-.377c-.477-.36-.46-.45.016-.853.603-.509.564-.757-.17-1.069a2.08 2.08 0 0 0-.538-.128c-1.393-.114-2.785-.288-4.179-.304-2.79-.032-5.581-.176-8.364.291-2.482.417-4.992.668-7.486 1.018-.4.055-.782.238-1.167.375-.273.098-.489.263-.47.598.024.44-.279.627-.605.791-.244.125-.495.236-.74.359-1.54.776-3.07 1.577-4.626 2.323-.762.367-1.568.643-2.36.943-.063.024-.263.035-.446.038-.115.002-.168-.144-.079-.218.088-.073.175-.14.227-.17.357-.203.925-.313 1.271-.532.09-.055.151-.29.107-.389-.047-.104-.237-.2-.363-.198-.151.003-.307.104-.452.178-1.062.541-2.135 1.062-3.18 1.635a13.72 13.72 0 0 0-1.765 1.188c-.33.254-.647.6-.42 1.104.16.35-.114.508-.337.65-.576.371-.873.89-.91 1.569-.014.263-.09.46-.4.541-.153.042-.27.246-.39.386-.125.145-.209.334-.355.443-.592.441-1.213.844-1.8 1.289-.5.38-1.05.574-1.666.631-.272.026-.54.096-.808.15-.048.01-.09.053-.135.08.053.038.104.104.157.106.658.025 1.315.045 1.973.06.738.017 1.424-.217 2.023-.607 1.1-.718 2.155-1.51 3.235-2.26.719-.499 1.438-1 2.179-1.466.95-.6 1.922-1.166 2.882-1.751.078-.047.555-.413.622-.478-.104.01-.636.285-.73.322-.204.08-.393.195-.598.272-.338.126-.696.244-1.009-.04-.209-.186-.124-.667.157-1.062.062-.089.124-.191.212-.248.505-.328.992-.701 1.532-.96 2.472-1.176 4.96-2.321 7.446-3.472.195-.09.413-.127.622-.179 1.328-.33 2.657-.658 3.986-.984.378-.092.758-.174 1.142-.24.768-.13 1.538-.242 2.31-.36.213-.032.435-.083.647-.065.908.077 1.794-.033 2.69-.175.499-.082 1.04-.04 1.54.064.486.1.635.614.387 1.05a.971.971 0 0 1-.8.505c-1.253.119-2.504.27-3.758.366-2.854.219-5.649.715-8.322 1.775-.966.383-1.911.815-2.864 1.23-.125.056-.24.134-.354.211-.065.043-.338.185-.396.24.098.015.424-.019.513-.04.158-.039.307-.113.458-.18.904-.394 1.812-.78 2.711-1.187 1.363-.616 2.822-.844 4.278-1.083 1.107-.183 2.216-.404 3.332-.471 1.997-.122 3.999-.147 6-.199 1.86-.048 3.7.463 5.57.235.126-.015.261.077.396.1.887.166 1.768.387 2.662.476 1.505.151 2.98.515 4.362 1.132 2.224.991 4.433 2.017 6.67 2.977 2.609 1.119 4.962 2.688 7.324 4.218 2.368 1.535 4.054 3.802 5.755 6.02.468.608.929 1.22 1.393 1.829.781 1.025 1.606 2.022 2.332 3.084 1.022 1.496 1.961 3.049 2.955 4.565.564.86.59.854 1.204.075.177-.224.257-.117.353.055.037.066.084.18.102.252.351 1.398.718 2.79 1.038 4.195.17.747.241 1.517.387 2.272.37 1.913.956 3.789.984 5.761.016 1.098.049 2.195.06 3.291a.55.55 0 0 1-.146.362c-.256.243-.113.394.041.624.19.283.337.623.403.956.068.34.042.706.01 1.056-.065.686.03 1.384-.559 1.97-.385.382-.388 1.046-.2 1.522.129.325.182.474-.006.78-.22.358-.475.644-.802.903-.219.174-.423.442-.5.707-.336 1.133-.61 2.283-.933 3.42-.103.36-.274.708-.44 1.046-.254.517-.54 1.018-.792 1.537-.045.092-.036.294.026.341.37.28.879.066.98-.39.094-.428.172-.861.3-1.281.066-.221.154-.468.498-.442.327.024.409.23.448.486.064.431.058.874.129 1.298.025.156.01.314.005.471-.002.058.021.113.035.167.07-.034.184-.054.2-.104.16-.49.41-.983.427-1.48.022-.706.189-1.354.425-2.001.056-.155.125-.308.153-.468.47-2.704.934-5.407 1.397-8.11.056-.334.119-.664-.35-.787-.087-.023-.17-.25-.17-.384-.001-.815.603-1.247 1.153-1.668.392-.298.854-.054.984.454.164.645.253 1.288-.018 1.942-.086.208-.073.468-.069.703.01.683.088 1.354-.237 2.017-.199.408-.34.922-.288 1.36.13 1.105-.006 2.187-.051 3.28a3.056 3.056 0 0 1-.763 1.947c-.174.202-.367.428-.434.677-.287 1.06-.525 2.132-.793 3.195-.115.451-.226.907-.403 1.333-.354.859-.75 1.701-1.134 2.546a9.006 9.006 0 0 1-.506.93c-.489.76-.977 1.52-1.496 2.258-.299.424-.63.841-1.264.752-.539-.075-.61-.158-.367-.687.275-.594.57-1.162.434-1.871-.043-.226.114-.54.269-.746.392-.517.569-1.098.753-1.713.222-.745-.008-1.629.648-2.244.025-.024.01-.101-.003-.15-.068-.291-.714-.744-1.098-.775-.4-.03-.357.353-.502.555-.11.155-.185.337-.265.512-.73 1.606-1.533 3.174-2.65 4.546-1.14 1.4-2.05 2.924-2.648 4.625-.227.65-.71 1.264-.375 2.045.054.128-.133.398-.262.56a45.198 45.198 0 0 1-1.588 1.894c-.213.237-.476.48-.765.586-.485.177-.841.473-1.183.845-.424.463-.909.87-1.379 1.29-.059.052-.193.023-.292.02-.009 0-.037-.11-.016-.14.341-.526.645-1.084 1.05-1.554.247-.286.472-.498.398-.918-.023-.135.127-.327.24-.455.604-.674 1.235-1.323 1.828-2.007.329-.378.551-.826.514-1.354-.007-.098-.06-.192-.092-.288-.096.042-.21.064-.283.131-.652.589-1.308 1.171-1.939 1.782-.737.713-1.518 1.352-2.492 1.707-.107.038-1.47.876-1.923 1.085-.165.079-.296-.155-.144-.256.442-.297 1.692-1.253 1.797-1.336.185-.152.56-.178.772-.301.163-.094.353-.188.452-.336.572-.853 1.356-1.443 2.227-1.944.3-.174.577-.383.814-.636a26.833 26.833 0 0 0 4.087-5.678 67.962 67.962 0 0 0 1.835-3.681c1.123-2.446 2.168-4.92 2.862-7.538a44.985 44.985 0 0 0 1.275-6.877c.276-2.625.125-5.218-.377-7.8-.298-1.534-.576-3.077-.93-4.6-.506-2.185-.915-4.377-2.1-6.375-1.042-1.755-2.075-3.508-3.29-5.143a3.777 3.777 0 0 0-1.102-.97 2.43 2.43 0 0 1-.92-.983c-.193-.362-.398-.728-.658-1.041-.595-.715-1.222-1.403-1.843-2.095-.346-.384-.67-.75-1.26-.838-.572-.085-1.121-.752-1.046-1.197.081-.472-.173-.517-.486-.555-.566-.07-1.008-.372-1.458-.695-.371-.266-.793-.458-1.192-.682-.096-.053-.21-.088-.28-.164-.054-.058-.054-.167-.078-.252.078-.002.171-.035.23-.002.33.185.65.39.982.572.048.027.138-.021.209-.034-.018-.052-.023-.119-.059-.151-.561-.52-1.072-1.122-1.705-1.534-1.212-.793-2.446-1.587-3.758-2.186-2.215-1.011-4.507-1.85-6.75-2.8-1.908-.807-3.893-1.302-5.938-1.566-.43-.056-.872-.02-1.308-.024-.408-.005-.815.009-1.222-.014-1.257-.073-2.513-.193-3.772-.233-2.912-.09-5.816.097-8.695.686-.795.161-1.603.232-2.414.266-.452.02-.78.184-1.04.548a1.49 1.49 0 0 1-.638.525c-2.417.996-4.859 1.92-7.212 3.082-3.133 1.548-6.143 3.267-8.882 5.453-2.259 1.8-4.402 3.708-6.19 6.009-1.208 1.556-2.013 3.334-3.006 5.008-.266.448-.641.87-.768 1.354-.559 2.138-1.528 4.114-2.328 6.156-.556 1.419-.91 2.888-1.13 4.384-.243 1.631-.402 3.274-.582 4.913-.13 1.204-.283 2.407-.34 3.615-.076 1.619-.191 3.252-.066 4.86.14 1.803.504 3.593.825 5.376.204 1.135.405 2.292 1.309 3.146.11.102.156.287.203.44.206.688.227 1.376.207 2.104-.018.645.049 1.258-.133 1.91-.093.333.193.776.314 1.169.178.573.392 1.118.239 1.765-.17.714.342 1.204 1.065 1 .756-.213 1.354.072 1.917.443.635.418 1.186.96 1.807 1.401.453.323.531.4.364.931-.166.524-.37 1.036-.534 1.56-.087.28-.129.575-.19.864.179-.248.36-.495.536-.743.048-.067.073-.153.128-.21.091-.093.487-1.295.795-1.295.916-.062-.226.506-.403 1.402-.08.405-.098.821-.108 1.233-.024 1.105.587 1.913 1.425 2.46.439.285.982.31.93 1.031-.01.138.275.319.449.446.73.53 1.48 1.035 2.205 1.576.708.528.711.577.279 1.324-.072.125-.225.215-.358.29-.595.349-.598.349-.085.854l.177.172c1.375 1.335 3.024 2.276 4.675 3.198.736.409 1.551.7 2.36.952.698.219.873.044.829-.695-.026-.428.165-.394.44-.283.99.395 1.988.772 2.97 1.187 1.288.542 2.555 1.086 4.01 1.062.752-.012 1.51.215 2.263.343.296.05.587.158.883.178.199.014.404-.082.607-.128-.116-.226-.181-.508-.357-.662-.24-.212-.556-.347-.856-.479-.425-.187-.866-.337-1.297-.513-.093-.037-.249-.144-.24-.17.106-.301.212-.613.385-.876.04-.06.346.04.52.093 1.494.453 2.985.912 4.476 1.368.078.025.16.043.232.082.04.02.064.077.094.118-.04.025-.082.066-.124.07-.33.01-.658.01-.986.022-.109.003-.217.03-.326.047.111.067.216.17.334.192 1.615.304 3.228.63 4.85.884 2.463.387 4.924.765 7.438.668 2.331-.091 4.658-.209 6.957-.604 1.263-.218 2.515-.546 3.744-.916a207.238 207.238 0 0 0 7.276-2.318c.893-.304 1.777-.687 2.43-1.472.21-.251.67-.405 1.018-.408 1.072-.006 1.888-.425 2.49-1.298.21-.308.48-.498.857-.584.622-.141.693-.258.416-.833-.168-.35-.1-.57.146-.797.848-.781 1.697-1.56 2.55-2.335.046-.04.137-.031.207-.044.006.076.05.184.015.225-.358.411-.725.816-1.097 1.217-.219.236-.468.448-.665.702-.075.098-.093.383-.05.404.145.072.365.136.49.071.238-.122.42-.347.644-.505.31-.22.618-.462.962-.61.387-.167.73-.347 1.002-.684.168-.21.398-.385.633-.519.386-.22.604-.49.642-.968.049-.612.41-.886 1.075-.995.156-.024.309-.08.442-.167.966-.64 1.756-1.404 2.394-2.426 1.06-1.697 2.117-3.422 3.545-4.863.225-.228.387-.51.477-.818.248-.854.8-1.482 1.375-2.116.384-.422.782-.87 1.018-1.38.539-1.163 1.11-2.336 1.433-3.568.483-1.829.772-3.709 1.12-5.572.055-.29.002-.604-.02-.905-.005-.062-.093-.158-.152-.165-.053-.006-.154.076-.172.137-.089.317-.144.645-.238.96-.438 1.475-.812 2.973-1.359 4.404-.288.755-.586 1.51-.863 2.27-.027.073-.063.14-.103.206-.1.162-.344.125-.398-.057a2.784 2.784 0 0 1-.062-.255c-.019-.096.055-.21.076-.317.231-1.128.45-2.26.694-3.384.121-.562-.039-1.243.615-1.607.037-.02.047-.097.062-.15.272-.946.547-1.892.807-2.842.042-.152 0-.327.009-.49.015-.26.017-.527.067-.782.072-.377.227-.742.27-1.12.228-2.075.44-4.152.643-6.23.053-.545.107-1.099.064-1.642-.154-1.943-.31-3.889-.838-5.781-.097-.346-.117-.652.448-.567.344.051.534-.234.528-.592a1.877 1.877 0 0 0-.061-.407c-.27-1.12-.506-2.25-.829-3.353-.315-1.077-.734-2.122-1.082-3.19a102.49 102.49 0 0 1-.932-3.068c-.114-.394-.3-.688-.697-.853-.17-.073-.428-.282-.413-.394.14-.999-1.023-1.39-1.032-2.305-.001-.054-.116-.107-.177-.163-.396-.366-.8-.724-1.184-1.1-.089-.089-.183-.258-.157-.361.13-.526-.215-.781-.5-1.128-.243-.292-.734-.549-.437-1.114.115-.217-.087-.244-.277-.214-.223.033-.515.13-.662.03-.205-.141-.318-.432-.445-.673-.048-.09-.01-.22-.036-.325-.228-.913-.606-1.713-1.588-2.03-.377-.121-.644-.356-.902-.666a95.323 95.323 0 0 0-2.55-2.91c-.237-.263-.523-.485-.802-.707-.199-.156-.352-.015-.306.168.077.31.195.63.376.89.655.95 1.356 1.867 2.011 2.817.158.228.255.498.362.76.221.143.562.396.668.54.977 1.316 1.928 2.65 2.885 3.982.079.11.147.232.194.36.023.064.014.173-.028.223-.033.04-.152.048-.208.02-.543-.275-1.147-.402-1.454-1.083-.595-1.319-1.2-2.236-1.857-3.526l-.225-.431c-.922-.568-1.527-1.48-2.308-2.202zM9.805 73.768c.037-1.29-.422-1.785-1.588-1.824-.739-.026-.73-.028-.912-.795a1.136 1.136 0 0 0-.27-.483c-1.052-1.135-1.751-2.434-1.973-3.987-.097-.68-.29-1.335-.69-1.92-.214-.313-.361-.676-.508-1.028-.133-.323-.299-.43-.626-.243-.22.126-.47.411-.725.128-.298-.325.125-.504.204-.758.155-.489.174-1.017.268-1.526.057-.317.15-.624.228-.936.006-.027.041-.056.035-.073-.241-.703.316-1.148.51-1.712.171-.495.138-1.071.142-1.614.009-1.013-.016-2.026-.036-3.039-.01-.461-.02-.926-.078-1.383-.01-.09-.236-.218-.362-.217-.41.002-.577-.252-.718-.57-.134-.3-.244-.62-.428-.887-.265-.39-.298-.664.157-.937.336-.2.293-.587.204-.903-.243-.857.066-1.634.369-2.385.13-.323.462-.62.775-.802.592-.342.923-.734 1.149-1.45.361-1.151.276-2.307.44-3.451.035-.244.055-.496.134-.728.38-1.128.74-2.265 1.185-3.368.231-.57.69-1.05.935-1.62 1.397-3.255 2.786-6.511 4.682-9.527.754-1.2 1.297-2.533 2.012-3.762.411-.707.978-1.323 1.468-1.985 1.489-2.015 3.213-3.819 4.98-5.584.6-.599 1.283-1.111 1.898-1.697.269-.256.5-.573.678-.9.256-.472.517-.835 1.1-1.003.624-.18 1.14-.582 1.32-1.33.154-.645.643-1.01 1.33-1.028.796-.021 1.45-.354 2.122-.773 1.373-.854 2.81-1.6 4.218-2.399 1.791-1.016 3.615-1.964 5.563-2.644a43.619 43.619 0 0 1 2.039-.647c.306-.09.664-.366.89.147.017.041.156.061.226.044.817-.218 1.682-.338 2.431-.7.604-.292 1.197-.51 1.845-.605.944-.137 1.888-.343 2.84-.005.124.045.356-.008.442-.103.371-.413.754-.36 1.185-.126.109.058.291.1.384.046.532-.298 1.053-.092 1.593-.054.56.038 1.202.036 1.688-.201.81-.393 1.644-.433 2.48-.424 1.92.02 3.839.083 5.754.191 2.533.144 4.96.814 7.358 1.612a59.266 59.266 0 0 1 7.525 3.073c1.618.8 3.184 1.71 4.735 2.636 1.672.996 3.303 2.058 4.944 3.105 1.756 1.12 3.197 2.577 4.432 4.246.981 1.325 1.884 2.719 2.96 3.96.871 1.006 1.562 2.1 2.236 3.233.701 1.18 1.521 2.289 2.257 3.447 1.435 2.267 2.526 4.675 3.153 7.307.528 2.218 1.244 4.39 1.818 6.599.636 2.443 1.265 4.893 1.304 7.448.005.278.08.638.262.813.337.323.273.567.006.833-.257.254-.292.458-.052.777.162.217.25.564.223.84a151.767 151.767 0 0 1-.588 5.163c-.04.305-.22.632-.43.862-.307.334-.4.61-.14 1.018.122.188.173.466.155.695-.059.765-.13 1.534-.264 2.29-.105.59-.377 1.15-.46 1.74-.104.746-.148 1.489-.695 2.076-.247 2.681-1.717 4.83-3.084 7.008-1.094 1.745-2.375 3.376-3.401 5.157-1.008 1.747-2.38 3.146-3.75 4.568-1.083 1.128-2.168 2.257-3.303 3.332-1.075 1.02-2.215 1.971-3.326 2.954-.391.345-.794.68-1.163 1.047-.488.485-.965.933-1.656 1.163-.373.123-.67.527-.959.845-.297.327-.572.541-1.062.4-.22-.065-.541.02-.749.15-.696.437-1.368.916-2.035 1.4-.274.2-.536.32-.893.334-.306.014-.61.187-.903.315-1.05.463-2.095.941-3.146 1.402a1.225 1.225 0 0 1-.475.103c-.333-.002-.613.101-.74.412-.143.346-.394.438-.72.408-.651-.057-1.241.12-1.817.412-.464.236-.937.46-1.43-.018-.122-.117-.444-.138-.622-.068-.452.18-.898.166-1.365.14-.372-.022-.798-.057-.852.514-.005.061-.162.132-.259.159-.862.243-1.716.523-2.59.698-.5.1-1.037-.003-1.555.034-.866.063-1.728.228-2.593.24-2.274.029-4.55.05-6.823-.027a40.335 40.335 0 0 1-4.825-.438c-2.972-.463-5.929-.98-8.81-1.93-3.234-1.069-6.382-2.324-9.427-3.835-1.146-.57-2.21-1.322-3.256-2.072-2.074-1.484-4.108-3.025-6.162-4.539-.218-.159-.463-.286-.693-.429-.14-.086-.318-.143-.411-.266-.92-1.22-2.207-2.122-2.977-3.475-.136-.237-.32-.447-.484-.666-.47-.629-1.051-1.035-1.88-.945-.378.042-.584-.049-.654-.505-.135-.886-.636-1.477-1.555-1.712-.308-.079-.662-.337-.81-.614-.319-.598-.655-1.226-.512-1.85zm33.253 26.246c-.675-.17-1.395-.329-2.104-.53-2.077-.596-4.174-1.134-6.215-1.835-1.545-.53-3.025-1.26-4.514-1.946-.306-.14-.564-.44-.775-.719-1.173-1.549-2.325-3.115-3.484-4.677-.033-.043-.084-.082-.094-.131-.014-.07 0-.144.003-.216.048.013.108.013.142.044.162.147.327.294.473.456.81.891 1.62 1.783 2.418 2.684.218.245.448.355.789.33.287-.021.601.022.874.122 4.11 1.503 8.216 3.02 12.323 4.536.283.104.572.2.836.343.348.19.63.45.568.91-.05.357-.302.53-.866.601-.108.015-.217.017-.374.028zm-37.4-27.84c-.12.5-.19 1.017-.376 1.488-.195.495-.672.63-1.056.397-.353-.216-.386-.63-.05-1.058.154-.196.413-.383.197-.624-.39-.434-.115-.673.192-.932.041-.036.072-.09.118-.113.2-.104.472-.334.593-.271.17.088.259.384.325.606.045.148-.013.325-.024.489l.08.019zm3.7 9.91c.452.01 1.023.532 1.071.98.05.461-.212.732-.674.694-.45-.036-.898-.394-1.03-.82-.164-.526.088-.865.633-.853zM1.41 71.242c-.02.37-.473.815-.811.798-.336-.02-.62-.386-.591-.764.027-.36.505-.778.848-.737.32.036.573.357.554.703zm45.106 28.096c.022.215-.463.419-1.029.507-.369.059-.429-.18-.478-.408-.072-.334.228-.79.505-.834.244-.038.976.498 1.002.735zM13.242 81.8c-.059.515-.254.72-.634.665-.35-.053-.554-.375-.51-.814.031-.312.183-.524.517-.516.386.008.666.321.627.665zM1.228 58.946c.108.157.333.366.407.62.079.272-.406.687-.698.666-.243-.016-.494-.361-.493-.674.002-.289.366-.64.784-.612zm69.668 29.61a.192.192 0 0 1-.122-.029c-.7-.437-1.278.235-1.945.38-.264.056-.528.143-.795.161-.627.043-.692.015-.877-.59-.08-.263-.185-.303-.398-.248-.714.19-1.425.395-2.144.567-.258.063-.555.128-.798.059-.429-.122-.806-.371-1.298-.167-.22.093-.478-.28-.442-.56.04-.303.424-.631.626-.475.414.322.584.005.88-.164.389-.22.84-.376 1.282-.45 2.033-.336 3.976-.971 5.895-1.699 2.37-.897 4.56-2.128 6.67-3.52a3.694 3.694 0 0 1 1.116-.494c.19-.046.497.075.634.227.1.11.085.45-.013.59-.267.371-.566.745-.923 1.025-1.456 1.142-3.104 1.952-4.786 2.69-.575.25-1.175.445-1.753.693a.238.238 0 0 0-.092.084c-.089.128.015.317.17.298a.194.194 0 0 0 .046-.011c1.5-.589 2.996-1.19 4.491-1.79.1-.04.211-.074.293-.14 1.53-1.283 3.217-2.339 4.877-3.438 1.803-1.194 3.549-2.474 5.32-3.715.023-.016.04-.043.064-.053l.33-.135a.192.192 0 0 1 .261.21 1.98 1.98 0 0 1-.06.282c-.194.661-.68 1.115-1.147 1.577-2.198 2.166-4.578 4.084-7.337 5.499-.556.285-1.04.717-1.713.732-.117.003-.233.122-.346.192-1.776 1.11-3.673 1.93-5.718 2.386-.068.017-.138.018-.248.027zM14.384 54.99c-.054-.49-.12-.978-.16-1.469-.022-.273-.056-.563.009-.82.305-1.214.194-2.461.317-3.686.113-1.115.365-2.216.57-3.32.23-1.239.437-2.484.727-3.71.334-1.416.76-2.802 1.456-4.1.36-.67.565-1.426.855-2.138.185-.456.385-.907.6-1.35.16-.325.43-.538.797-.41.36.124.488.446.392.806-.19.714-.365 1.437-.631 2.126-.335.868-.785 1.692-1.13 2.557-.59 1.478-1.15 2.973-1.332 4.567-.11.97-.092 1.958-.248 2.92-.31 1.897-.604 3.798-.68 5.72-.047 1.177.043 2.36.068 3.54.004.138-.024.277-.009.412.044.388-.123.722-.478.734-.272.01-.64-.18-.812-.403-.258-.336-.44-.753-.368-1.229.037-.242.006-.494.006-.742l.051-.005zM55.44 89.64c-2.604-.005-5.186-.298-7.766-.617-.542-.068-1.08-.18-1.614-.292a.967.967 0 0 1-.425-.22c-.428-.38-.389-.758.152-.91.49-.138 1.04-.234 1.531-.151 2.3.386 4.62.535 6.942.634 1.034.045 2.073-.036 3.11-.029.405.002.818.057 1.215.144.265.057.597.223.507.537-.07.247-.33.557-.56.614-.633.16-1.293.22-1.946.283-.38.037-.764.007-1.146.007zm45.67-52.081c-.009.481-.194.719-.687.688-.435-.028-.458.136-.383.473.053.24.095.488.09.73-.005.232.03.522-.297.602-.267.063-.711-.184-.77-.478a1.318 1.318 0 0 1 .054-.705c.07-.185.148-.273-.004-.488-.54-.764-.522-.885.226-1.44.317-.235.19-.515.027-.6-.775-.408-.685-1.195-.828-1.85-.143-.649.468-1.178 1.11-1.027.177.043.408.212.456.372.355 1.18.669 2.37.994 3.56.014.05.008.108.012.163zM25.188 24.536a.52.52 0 0 1 .175.595c-.054.154-.101.281-.181.381-.85 1.07-1.72 2.123-2.585 3.18a.845.845 0 0 1-.176.171c-.279.191-.758.175-.903-.057-.172-.275-.177-.572.049-.84.894-1.058 1.775-2.13 2.699-3.164.171-.192.508-.284.78-.318.046-.005.092.017.142.052zM50.881 9.98h.806c.261.003.54.06.538.366-.001.209-.105.512-.263.61-.962.59-2.05.698-3.143.641-.514-.026-.74-.716-.345-1.05.273-.232.67-.321 1.013-.469.047-.02.108-.007.162-.01l1.232-.088zm5.606.729c-.264.046-.525.11-.79.133-.523.05-.896-.29-.909-.806-.012-.449.265-.738.788-.734.516.006 1.032.079 1.548.126.372.034.618.25.67.609.06.412-.236.582-.58.66-.233.053-.474.073-.711.108zm3.901.714c-.172-.014-.473-.024-.77-.068-.388-.057-.694-.365-.697-.689-.003-.354.211-.534.523-.651.223-.084.439-.2.645-.322.39-.232.721-.194 1.012.142.07.082.11.19.173.279.208.295.427.57.179.967-.234.37-.576.367-1.065.342zM27.88 74.413c-.052.59-.255 1.024-.649 1.355-.251.211-.546.267-.832.088-.268-.167-.148-.42-.112-.666.04-.28.061-.578.01-.854-.078-.408.084-.835.453-1.002.303-.137.681 0 .89.378.127.231.176.507.24.7zm31.385 14.406c-.009-.505.486-.856.794-.645.242.165.37.165.543-.027a.207.207 0 0 1 .067-.049c.436-.212.8-.198.972.054.21.306.057.584-.107.835-.194.3-.66.484-.924.317-.27-.17-.486-.224-.81-.15-.164.038-.4-.243-.535-.335zm-1.933-84.92c.59.118 1.047.176 1.482.308.376.115.537.467.405.772-.143.33-.426.411-.75.339-.418-.094-.852-.166-1.237-.34-.164-.076-.335-.41-.3-.586.044-.213.302-.382.4-.493zM20.063 30.875c-.018-.78.428-1.153.732-1.58.157-.222.769-.142.871.11.077.185.033.483-.07.666-.196.35-.443.683-.728.961-.124.119-.407.136-.596.096-.119-.024-.198-.239-.209-.253zM91.65 74.046c.046-.613.756-1.4 1.209-1.417.178-.007.443.11.521.252.08.149.05.438-.05.59-.196.304-.446.59-.726.818-.165.134-.46.237-.642.18-.166-.054-.258-.343-.312-.423zM43.073 11.974c.263.204.532.319.643.522.16.297-.077.543-.333.652a4.985 4.985 0 0 1-1.095.312c-.1.017-.307-.148-.334-.26-.045-.188-.063-.496.046-.587.3-.247.672-.41 1.073-.639zm44.453 7.38c.08.053.236.118.34.232.202.22.37.47.561.703.222.269.144.504-.072.726-.239.246-.515.225-.723 0a4.754 4.754 0 0 1-.716-.967c-.185-.348.135-.725.61-.693zM21.219 63.378c-.07.233-.11.515-.243.74-.075.127-.317.238-.465.215-.148-.021-.38-.212-.384-.335-.014-.456.03-.918.1-1.37.02-.128.225-.34.302-.322.192.046.425.159.52.319.118.2.114.472.17.753zm32.34-52.54c-.344-.005-.779-.481-.755-.826.027-.404.406-.71.866-.698.39.01.72.361.7.747-.02.4-.42.783-.81.776zM30.973 88.214c-.008.544-.595.973-.983.77-.218-.115-.38-.358-.534-.569-.165-.224-.3-.53-.06-.733.127-.106.432-.025.65.014.21.035.426.094.61.198.146.082.246.246.317.32zm9.673-69.6c-.018.363-.566.807-.944.763-.344-.04-.648-.345-.645-.644.005-.353.534-.772.953-.754.338.015.65.326.636.634zm-1.39 71.016c.274.005.537.17.701.484.135.258.055.479-.169.64-.39.279-1.232-.067-1.333-.54-.063-.3.283-.582.801-.584zm-16.7-54.365c.02.343-.279.734-.593.777-.282.037-.555-.214-.59-.546-.04-.375.263-.835.578-.875.27-.035.585.3.605.644zm4.95-12.654c.014.232-.188.496-.399.524-.19.026-.374-.144-.398-.368-.027-.253.177-.562.389-.59.182-.023.394.203.408.434zm58.964-3.851a.594.594 0 0 1-.574-.659c.034-.296.328-.535.636-.516.312.019.581.288.585.582.003.339-.29.609-.647.593zM34.87 88.08c.544.018.817.256.813.577-.005.3-.275.523-.612.503-.345-.02-.705-.348-.603-.613.08-.211.309-.364.402-.467zm-7.01-4.646c.107.144.335.342.415.589.09.277-.242.534-.574.505-.378-.034-.582-.228-.573-.546.01-.306.281-.564.733-.548zm32.085-69.268c.014.31-.182.544-.48.53-.288-.013-.55-.106-.554-.461-.002-.295.102-.544.435-.592.31-.045.586.206.6.523zm33.73 14.347c.03.018.06.029.072.05.36.604.718 1.21 1.065 1.824.02.034-.08.192-.104.187-.379-.077-1.234-1.594-1.125-1.988.008-.031.062-.051.092-.073zm-3.548-5.228c-.433-.003-1.12-.794-1.076-1.222.006-.06.212-.17.271-.142.51.237.689.734.884 1.21.016.037-.057.112-.079.154zm2.408 52.823c.32.164.34.624.052.84a.682.682 0 0 1-.207.114c-.256.08-.558-.241-.508-.501.054-.29.241-.538.55-.49a.345.345 0 0 1 .113.037zm-9.501-54.497c-.285.2-.45.39-.651.443-.234.062-.629-.343-.518-.483.148-.186.398-.346.627-.389.124-.022.296.224.542.429zm-18.11-10.58c-.548-.073-1.006-.12-1.458-.207-.084-.016-.14-.18-.209-.277.089-.04.182-.124.264-.113.457.057.912.127 1.364.216.115.023.214.134.32.205-.117.073-.232.146-.282.176zM24.83 45.63l-1.144 5.387h.988l1.34-.063zm4.737 9.293c-.814 1.22-1.335 1.807-1.56 1.767-.196 0-.39-.246-.578-.736a39.624 39.624 0 0 1-.393-1.22l-.305-.965-.24-.86h-3.174l-.066.5a7.94 7.94 0 0 0-.13.982l-.055.876-1.188 1.004c-.045.042-.307.222-.786.543.341-.955.65-2.03.927-3.221l.611-2.64c.174-.76.385-1.654.632-2.68.13-.553.295-1.357.492-2.41l.337-1.827.208-1.186c.276-.276.716-.7 1.32-1.267.087-.083.17-.069.25.043.08.11.134.255.164.436l.12.788c.059.403.221 1.213.491 2.432l.698 3.199c.465 2.134.897 3.776 1.298 4.925.218.638.396.977.535 1.018l.305.104zm10.897.146l-.295.332-1.156 1.454-.207-1.121a67.629 67.629 0 0 1-.873-6.546l-.36 1.059-.578 1.767-.25.666c-.131.36-.332.795-.6 1.309-.393.762-.76 1.141-1.102 1.141-.415 0-.913-.553-1.495-1.662a26.243 26.243 0 0 1-.862-1.745l-.73-1.6a47.304 47.304 0 0 0-.218 4.474l-.459.498c-.385.413-.847 1.002-1.385 1.76l.327-3.566.197-1.908.458-4.294-.284-.932c-.334-1.108-.502-1.892-.502-2.35 0-.235.047-.45.143-.643l.142-.228.622-.707.546-.645c.065.762.203 1.545.415 2.346.066.263.28.984.643 2.161.77 2.523 1.563 4.31 2.376 5.364.299.388.572.582.82.582.61 0 1.118-1.095 1.526-3.284a23.937 23.937 0 0 0 .414-4.55v-.581l1.243-1.331.993-1.123c-.109.541-.305 1.512-.59 2.91l-.184.893c.181 3.007.53 5.736 1.047 8.188.188.9.284 1.426.284 1.58 0 .096-.023.207-.066.332zm3.825-9.438l-1.144 5.386h.99l1.339-.063zm4.738 9.292c-.815 1.22-1.335 1.807-1.56 1.767-.197 0-.389-.246-.579-.736a42.857 42.857 0 0 1-.392-1.22l-.306-.965-.24-.86h-3.174l-.065.5c-.066.333-.11.662-.13.982l-.056.876-1.188 1.004c-.044.042-.306.222-.786.543.342-.955.65-2.03.927-3.221l.611-2.64c.175-.76.385-1.654.632-2.68a54.42 54.42 0 0 0 .492-2.41l.338-1.827.207-1.186c.276-.276.716-.7 1.32-1.267.087-.083.17-.069.251.043.08.11.134.255.163.436l.12.788c.059.403.222 1.213.492 2.432l.697 3.199c.466 2.134.899 3.776 1.298 4.925.219.638.397.977.535 1.018l.305.104zm1.57-9.724a.467.467 0 0 1-.403.228c-.313 0-.571-.312-.775-.934l-.065-.271c.16-.291.469-.755.927-1.393l.35-.415.152.311c.072.152.2.402.381.748.095.14.219.25.371.333zm.786 9.662a15.502 15.502 0 0 0-1.506 1.974c0-1.87-.004-3.027-.01-3.471l-.11-3.013c-.036-1.094-.185-1.64-.447-1.64a.484.484 0 0 0-.305.123l-.098.084-.153-.416.6-.644c.029-.027.269-.346.72-.955.37-.5.595-.748.676-.748.204 0 .345.16.425.477.044.166.073.583.088 1.246l.076 3.263zm4.098-9.23l-1.144 5.386h.989l1.34-.063zm4.736 9.292c-.814 1.22-1.333 1.807-1.56 1.767-.195 0-.388-.246-.577-.736a41.4 41.4 0 0 1-.392-1.22l-.306-.965-.24-.86h-3.175l-.065.5c-.065.333-.11.662-.13.982l-.055.876-1.189 1.004c-.044.042-.306.222-.785.543.341-.955.65-2.03.926-3.221l.612-2.64c.174-.76.385-1.654.633-2.68.13-.553.293-1.357.49-2.41l.338-1.827.207-1.186a65.09 65.09 0 0 1 1.32-1.267c.088-.083.17-.069.252.043.079.11.134.255.163.436l.12.788c.058.403.222 1.213.49 2.432l.699 3.199c.465 2.134.898 3.776 1.298 4.925.218.638.396.977.534 1.018l.306.104zm7.527-13.237l-1.134 2.121c-.182.332-.51.54-.982.622-.123.015-.301.028-.535.042h-.665l-.033 2.494c-.014.9-.003 2.202.033 3.906.022 1.234.062 2.444.12 3.637a19.413 19.413 0 0 0-1.854 2.41l.054-1.245V44.43c-.318 0-.8-.055-1.445-.166-.644-.11-1.126-.166-1.446-.166l.601-1.04c.218-.346.44-.657.665-.935l.175-.206.164-.23 1.188.145c.08.015.917-.013 2.51-.082a63.414 63.414 0 0 1 2.584-.063zm7.298 6.34v.352c0 1.732-.324 3.324-.97 4.78l-.295.664c-.044.11-.164.333-.36.665-.902 1.579-1.819 2.368-2.75 2.368-.9 0-1.505-.386-1.81-1.162l-.512-1.31c-.38-.97-.568-2.21-.568-3.719 0-1.233.284-2.423.85-3.575.226-.457.517-.92.873-1.392l.154-.166.217.291c-.327.817-.49 1.766-.49 2.846 0 .943.136 1.912.409 2.91.272.997.61 1.773 1.014 2.327s.78.832 1.129.832c.538 0 .935-.443 1.19-1.33.195-.707.293-1.608.293-2.702 0-2.272-.385-4.107-1.155-5.507-.422-.775-.873-1.218-1.354-1.33a1.487 1.487 0 0 0-.262-.02c-.225 0-.53.069-.915.208l-.175.063-.142-.417.437-.478c.873-.955 1.548-1.432 2.028-1.432.357 0 .71.13 1.059.393.93.706 1.541 1.752 1.832 3.138.182.873.273 1.774.273 2.702zm7.58 1.848c.03.22.044.45.044.685 0 .887-.24 1.884-.72 2.994a7.967 7.967 0 0 1-.873 1.536l-.391.458-.197.227-.186.189c-.48.485-.941.726-1.384.726-.641 0-1.201-.38-1.68-1.142-.387-.583-.765-1.483-1.136-2.701-.21-.693-.345-1.6-.403-2.723 0-2.271.313-4.031.938-5.277.415-.832.97-1.6 1.67-2.307.414-.414.948-.686 1.602-.81.153-.029.31-.043.47-.043l.61.126c.488.15.731.484.731.997 0 .249-.061.45-.184.602l-.904 1.101-.282.312c-.14-.332-.37-.7-.697-1.101-.188-.235-.446-.353-.773-.353-.334 0-.631.2-.892.603-.261.401-.44.914-.539 1.537a12.05 12.05 0 0 0-.147 1.87c0 .652.055 1.38.163 2.183l.1.726c.15 1.122.497 2.127 1.038 3.012.54.887 1.107 1.33 1.702 1.33.297 0 .528-.176.69-.529.164-.354.245-.814.245-1.382 0-.18-.01-.387-.033-.623l-.076-.499c-.153-1.011-.52-1.67-1.102-1.974l-.12-.061.317-.478c.066-.126.269-.41.61-.853.19-.25.422-.374.699-.374.552 0 .916.672 1.09 2.016zm7.789-1.849v.353c0 1.732-.324 3.324-.971 4.78l-.294.664c-.044.11-.164.333-.36.665-.902 1.579-1.819 2.368-2.75 2.368-.9 0-1.504-.386-1.81-1.162l-.513-1.31c-.378-.97-.567-2.21-.567-3.719 0-1.233.284-2.423.85-3.575.226-.457.517-.92.874-1.392l.152-.166.219.291c-.328.817-.492 1.766-.492 2.846 0 .943.137 1.912.41 2.91.272.997.61 1.773 1.014 2.327s.78.832 1.13.832c.537 0 .933-.443 1.188-1.33.196-.707.294-1.608.294-2.702 0-2.272-.385-4.107-1.156-5.507-.422-.775-.873-1.218-1.353-1.33a1.469 1.469 0 0 0-.261-.02c-.226 0-.531.069-.916.208l-.174.063-.143-.417.436-.478c.873-.955 1.55-1.432 2.03-1.432.355 0 .708.13 1.058.393.931.706 1.541 1.752 1.833 3.138.18.873.272 1.774.272 2.702z"/><path fill="#fff" d="M36.96 10.049c-.076-.011-.315.123-.375.151-.322.15-.634.323-.953.479-.64.316-1.282.624-1.92.94-.054.026-.274.092-.317.139.052.008.295.033.342.022 1.075-.26 2.095-.638 2.962-1.356.041-.034.069-.084.102-.127.004-.023.155-.225.16-.248zM8.51 41.153c-.294.999-.551 2.008-.852 3.005-.103.34-.021.526.301.627.386.122.49-.161.559-.428.253-.98.493-1.964.726-2.95.077-.32-.094-.578-.469-.626-.072.097-.22.22-.265.372zM8.152 61.29c.069.175.075.376.105.565.288 1.9.496 3.81 1.205 5.623.517 1.32.723 2.768 1.66 3.913.133.162.162.405.248.607.13.302.214.646.415.889.215.259.519.493.83.61.412.155.59-.05.425-.46-.216-.532-.483-1.043-.737-1.56-.363-.735-.817-1.438-1.084-2.206-.664-1.915-1.22-3.868-1.87-5.786a9.943 9.943 0 0 1-.49-2.411c-.057-.685-.1-1.374-.233-2.044-.448-2.268-.727-4.549-.71-6.863 0-.137.034-.289-.015-.406-.041-.102-.173-.224-.271-.232-.107-.007-.274.082-.322.175-.07.139-.067.318-.077.482-.052.765-.098 1.532-.154 2.418.178 2.182.199 4.5 1.075 6.686zm79.283-43.98c-.885-.818-1.69-1.722-2.56-2.556-.37-.353-.781-.706-1.239-.912-1.091-.493-2.22-.888-3.232-1.561-.875-.583-1.819-1.06-2.736-1.579a4.641 4.641 0 0 0-.551-.267 591.37 591.37 0 0 0-3.731-1.507c-1.19-.475-2.362-1.014-3.582-1.394-2.011-.629-4.057-1.143-6.084-1.721a2.52 2.52 0 0 1-.806-.377c-.477-.36-.46-.45.016-.853.603-.509.564-.757-.17-1.069a2.08 2.08 0 0 0-.538-.128c-1.393-.114-2.785-.288-4.179-.304-2.79-.032-5.581-.176-8.364.291-2.482.417-4.992.668-7.486 1.018-.4.055-.782.238-1.167.375-.273.098-.489.263-.47.598.024.44-.279.627-.605.791-.244.125-.495.236-.74.359-1.54.776-3.07 1.577-4.626 2.323-.762.367-1.568.643-2.36.943-.063.024-.263.035-.446.038-.115.002-.168-.144-.079-.218.088-.073.175-.14.227-.17.357-.203.925-.313 1.271-.532.09-.055.151-.29.107-.389-.047-.104-.237-.2-.363-.198-.151.003-.307.104-.452.178-1.062.541-2.135 1.062-3.18 1.635a13.72 13.72 0 0 0-1.765 1.188c-.33.254-.647.6-.42 1.104.16.35-.114.508-.337.65-.576.371-.873.89-.91 1.569-.014.263-.09.46-.4.541-.153.042-.27.246-.39.386-.125.145-.209.334-.355.443-.592.441-1.213.844-1.8 1.289-.5.38-1.05.574-1.666.631-.272.026-.54.096-.808.15-.048.01-.09.053-.135.08.053.038.104.104.157.106.658.025 1.315.045 1.973.06.738.017 1.424-.217 2.023-.607 1.1-.718 2.155-1.51 3.235-2.26.719-.499 1.438-1 2.179-1.466.95-.6 1.922-1.166 2.882-1.751.078-.047.555-.413.622-.478-.104.01-.636.285-.73.322-.204.08-.393.195-.598.272-.338.126-.696.244-1.009-.04-.209-.186-.124-.667.157-1.062.062-.089.124-.191.212-.248.505-.328.992-.701 1.532-.96 2.472-1.176 4.96-2.321 7.446-3.472.195-.09.413-.127.622-.179 1.328-.33 2.657-.658 3.986-.984.378-.092.758-.174 1.142-.24.768-.13 1.538-.242 2.31-.36.213-.032.435-.083.647-.065.908.077 1.794-.033 2.69-.175.499-.082 1.04-.04 1.54.064.486.1.635.614.387 1.05a.971.971 0 0 1-.8.505c-1.253.119-2.504.27-3.758.366-2.854.219-5.649.715-8.322 1.775-.966.383-1.911.815-2.864 1.23-.125.056-.24.134-.354.211-.065.043-.338.185-.396.24.098.015.424-.019.513-.04.158-.039.307-.113.458-.18.904-.394 1.812-.78 2.711-1.187 1.363-.616 2.822-.844 4.278-1.083 1.107-.183 2.216-.404 3.332-.471 1.997-.122 3.999-.147 6-.199 1.86-.048 3.7.463 5.57.235.126-.015.261.077.396.1.887.166 1.768.387 2.662.476 1.505.151 2.98.515 4.362 1.132 2.224.991 4.433 2.017 6.67 2.977 2.609 1.119 4.962 2.688 7.324 4.218 2.368 1.535 4.054 3.802 5.755 6.02.468.608.929 1.22 1.393 1.829.781 1.025 1.606 2.022 2.332 3.084 1.022 1.496 1.961 3.049 2.955 4.565.564.86.59.854 1.204.075.177-.224.257-.117.353.055.037.066.084.18.102.252.351 1.398.718 2.79 1.038 4.195.17.747.241 1.517.387 2.272.37 1.913.956 3.789.984 5.761.016 1.098.049 2.195.06 3.291a.55.55 0 0 1-.146.362c-.256.243-.113.394.041.624.19.283.337.623.403.956.068.34.042.706.01 1.056-.065.686.03 1.384-.559 1.97-.385.382-.388 1.046-.2 1.522.129.325.182.474-.006.78-.22.358-.475.644-.802.903-.219.174-.423.442-.5.707-.336 1.133-.61 2.283-.933 3.42-.103.36-.274.708-.44 1.046-.254.517-.54 1.018-.792 1.537-.045.092-.036.294.026.341.37.28.879.066.98-.39.094-.428.172-.861.3-1.281.066-.221.154-.468.498-.442.327.024.409.23.448.486.064.431.058.874.129 1.298.025.156.01.314.005.471-.002.058.021.113.035.167.07-.034.184-.054.2-.104.16-.49.41-.983.427-1.48.022-.706.189-1.354.425-2.001.056-.155.125-.308.153-.468.47-2.704.934-5.407 1.397-8.11.056-.334.119-.664-.35-.787-.087-.023-.17-.25-.17-.384-.001-.815.603-1.247 1.153-1.668.392-.298.854-.054.984.454.164.645.253 1.288-.018 1.942-.086.208-.073.468-.069.703.01.683.088 1.354-.237 2.017-.199.408-.34.922-.288 1.36.13 1.105-.006 2.187-.051 3.28a3.056 3.056 0 0 1-.763 1.947c-.174.202-.367.428-.434.677-.287 1.06-.525 2.132-.793 3.195-.115.451-.226.907-.403 1.333-.354.859-.75 1.701-1.134 2.546a9.006 9.006 0 0 1-.506.93c-.489.76-.977 1.52-1.496 2.258-.299.424-.63.841-1.264.752-.539-.075-.61-.158-.367-.687.275-.594.57-1.162.434-1.871-.043-.226.114-.54.269-.746.392-.517.569-1.098.753-1.713.222-.745-.008-1.629.648-2.244.025-.024.01-.101-.003-.15-.068-.291-.714-.744-1.098-.775-.4-.03-.357.353-.502.555-.11.155-.185.337-.265.512-.73 1.606-1.533 3.174-2.65 4.546-1.14 1.4-2.05 2.924-2.648 4.625-.227.65-.71 1.264-.375 2.045.054.128-.133.398-.262.56a45.198 45.198 0 0 1-1.588 1.894c-.213.237-.476.48-.765.586-.485.177-.841.473-1.183.845-.424.463-.909.87-1.379 1.29-.059.052-.193.023-.292.02-.009 0-.037-.11-.016-.14.341-.526.645-1.084 1.05-1.554.247-.286.472-.498.398-.918-.023-.135.127-.327.24-.455.604-.674 1.235-1.323 1.828-2.007.329-.378.551-.826.514-1.354-.007-.098-.06-.192-.092-.288-.096.042-.21.064-.283.131-.652.589-1.308 1.171-1.939 1.782-.737.713-1.518 1.352-2.492 1.707-.107.038-1.47.876-1.923 1.085-.165.079-.296-.155-.144-.256.442-.297 1.692-1.253 1.797-1.336.185-.152.56-.178.772-.301.163-.094.353-.188.452-.336.572-.853 1.356-1.443 2.227-1.944.3-.174.577-.383.814-.636a26.833 26.833 0 0 0 4.087-5.678 67.962 67.962 0 0 0 1.835-3.681c1.123-2.446 2.168-4.92 2.862-7.538a44.985 44.985 0 0 0 1.275-6.877c.276-2.625.125-5.218-.377-7.8-.298-1.534-.576-3.077-.93-4.6-.506-2.185-.915-4.377-2.1-6.375-1.042-1.755-2.075-3.508-3.29-5.143a3.777 3.777 0 0 0-1.102-.97 2.43 2.43 0 0 1-.92-.983c-.193-.362-.398-.728-.658-1.041-.595-.715-1.222-1.403-1.843-2.095-.346-.384-.67-.75-1.26-.838-.572-.085-1.121-.752-1.046-1.197.081-.472-.173-.517-.486-.555-.566-.07-1.008-.372-1.458-.695-.371-.266-.793-.458-1.192-.682-.096-.053-.21-.088-.28-.164-.054-.058-.054-.167-.078-.252.078-.002.171-.035.23-.002.33.185.65.39.982.572.048.027.138-.021.209-.034-.018-.052-.023-.119-.059-.151-.561-.52-1.072-1.122-1.705-1.534-1.212-.793-2.446-1.587-3.758-2.186-2.215-1.011-4.507-1.85-6.75-2.8-1.908-.807-3.893-1.302-5.938-1.566-.43-.056-.872-.02-1.308-.024-.408-.005-.815.009-1.222-.014-1.257-.073-2.513-.193-3.772-.233-2.912-.09-5.816.097-8.695.686-.795.161-1.603.232-2.414.266-.452.02-.78.184-1.04.548a1.49 1.49 0 0 1-.638.525c-2.417.996-4.859 1.92-7.212 3.082-3.133 1.548-6.143 3.267-8.882 5.453-2.259 1.8-4.402 3.708-6.19 6.009-1.208 1.556-2.013 3.334-3.006 5.008-.266.448-.641.87-.768 1.354-.559 2.138-1.528 4.114-2.328 6.156-.556 1.419-.91 2.888-1.13 4.384-.243 1.631-.402 3.274-.582 4.913-.13 1.204-.283 2.407-.34 3.615-.076 1.619-.191 3.252-.066 4.86.14 1.803.504 3.593.825 5.376.204 1.135.405 2.292 1.309 3.146.11.102.156.287.203.44.206.688.227 1.376.207 2.104-.018.645.049 1.258-.133 1.91-.093.333.193.776.314 1.169.178.573.392 1.118.239 1.765-.17.714.342 1.204 1.065 1 .756-.213 1.354.072 1.917.443.635.418 1.186.96 1.807 1.401.453.323.531.4.364.931-.166.524-.37 1.036-.534 1.56-.087.28-.129.575-.19.864.179-.248.36-.495.536-.743.048-.067.073-.153.128-.21.091-.093.487-1.295.795-1.295.916-.062-.226.506-.403 1.402-.08.405-.098.821-.108 1.233-.024 1.105.587 1.913 1.425 2.46.439.285.982.31.93 1.031-.01.138.275.319.449.446.73.53 1.48 1.035 2.205 1.576.708.528.711.577.279 1.324-.072.125-.225.215-.358.29-.595.349-.598.349-.085.854l.177.172c1.375 1.335 3.024 2.276 4.675 3.198.736.409 1.551.7 2.36.952.698.219.873.044.829-.695-.026-.428.165-.394.44-.283.99.395 1.988.772 2.97 1.187 1.288.542 2.555 1.086 4.01 1.062.752-.012 1.51.215 2.263.343.296.05.587.158.883.178.199.014.404-.082.607-.128-.116-.226-.181-.508-.357-.662-.24-.212-.556-.347-.856-.479-.425-.187-.866-.337-1.297-.513-.093-.037-.249-.144-.24-.17.106-.301.212-.613.385-.876.04-.06.346.04.52.093 1.494.453 2.985.912 4.476 1.368.078.025.16.043.232.082.04.02.064.077.094.118-.04.025-.082.066-.124.07-.33.01-.658.01-.986.022-.109.003-.217.03-.326.047.111.067.216.17.334.192 1.615.304 3.228.63 4.85.884 2.463.387 4.924.765 7.438.668 2.331-.091 4.658-.209 6.957-.604 1.263-.218 2.515-.546 3.744-.916a207.238 207.238 0 0 0 7.276-2.318c.893-.304 1.777-.687 2.43-1.472.21-.251.67-.405 1.018-.408 1.072-.006 1.888-.425 2.49-1.298.21-.308.48-.498.857-.584.622-.141.693-.258.416-.833-.168-.35-.1-.57.146-.797.848-.781 1.697-1.56 2.55-2.335.046-.04.137-.031.207-.044.006.076.05.184.015.225-.358.411-.725.816-1.097 1.217-.219.236-.468.448-.665.702-.075.098-.093.383-.05.404.145.072.365.136.49.071.238-.122.42-.347.644-.505.31-.22.618-.462.962-.61.387-.167.73-.347 1.002-.684.168-.21.398-.385.633-.519.386-.22.604-.49.642-.968.049-.612.41-.886 1.075-.995.156-.024.309-.08.442-.167.966-.64 1.756-1.404 2.394-2.426 1.06-1.697 2.117-3.422 3.545-4.863.225-.228.387-.51.477-.818.248-.854.8-1.482 1.375-2.116.384-.422.782-.87 1.018-1.38.539-1.163 1.11-2.336 1.433-3.568.483-1.829.772-3.709 1.12-5.572.055-.29.002-.604-.02-.905-.005-.062-.093-.158-.152-.165-.053-.006-.154.076-.172.137-.089.317-.144.645-.238.96-.438 1.475-.812 2.973-1.359 4.404-.288.755-.586 1.51-.863 2.27-.027.073-.063.14-.103.206-.1.162-.344.125-.398-.057a2.784 2.784 0 0 1-.062-.255c-.019-.096.055-.21.076-.317.231-1.128.45-2.26.694-3.384.121-.562-.039-1.243.615-1.607.037-.02.047-.097.062-.15.272-.946.547-1.892.807-2.842.042-.152 0-.327.009-.49.015-.26.017-.527.067-.782.072-.377.227-.742.27-1.12.228-2.075.44-4.152.643-6.23.053-.545.107-1.099.064-1.642-.154-1.943-.31-3.889-.838-5.781-.097-.346-.117-.652.448-.567.344.051.534-.234.528-.592a1.877 1.877 0 0 0-.061-.407c-.27-1.12-.506-2.25-.829-3.353-.315-1.077-.734-2.122-1.082-3.19a102.49 102.49 0 0 1-.932-3.068c-.114-.394-.3-.688-.697-.853-.17-.073-.428-.282-.413-.394.14-.999-1.023-1.39-1.032-2.305-.001-.054-.116-.107-.177-.163-.396-.366-.8-.724-1.184-1.1-.089-.089-.183-.258-.157-.361.13-.526-.215-.781-.5-1.128-.243-.292-.734-.549-.437-1.114.115-.217-.087-.244-.277-.214-.223.033-.515.13-.662.03-.205-.141-.318-.432-.445-.673-.048-.09-.01-.22-.036-.325-.228-.913-.606-1.713-1.588-2.03-.377-.121-.644-.356-.902-.666a95.323 95.323 0 0 0-2.55-2.91c-.237-.263-.523-.485-.802-.707-.199-.156-.352-.015-.306.168.077.31.195.63.376.89.655.95 1.356 1.867 2.011 2.817.158.228.255.498.362.76.221.143.562.396.668.54.977 1.316 1.928 2.65 2.885 3.982.079.11.147.232.194.36.023.064.014.173-.028.223-.033.04-.152.048-.208.02-.543-.275-1.147-.402-1.454-1.083-.595-1.319-1.2-2.236-1.857-3.526l-.225-.431c-.922-.568-1.527-1.48-2.308-2.202zM9.805 73.768c.037-1.29-.422-1.785-1.588-1.824-.739-.026-.73-.028-.912-.795a1.136 1.136 0 0 0-.27-.483c-1.052-1.135-1.751-2.434-1.973-3.987-.097-.68-.29-1.335-.69-1.92-.214-.313-.361-.676-.508-1.028-.133-.323-.299-.43-.626-.243-.22.126-.47.411-.725.128-.298-.325.125-.504.204-.758.155-.489.174-1.017.268-1.526.057-.317.15-.624.228-.936.006-.027.041-.056.035-.073-.241-.703.316-1.148.51-1.712.171-.495.138-1.071.142-1.614.009-1.013-.016-2.026-.036-3.039-.01-.461-.02-.926-.078-1.383-.01-.09-.236-.218-.362-.217-.41.002-.577-.252-.718-.57-.134-.3-.244-.62-.428-.887-.265-.39-.298-.664.157-.937.336-.2.293-.587.204-.903-.243-.857.066-1.634.369-2.385.13-.323.462-.62.775-.802.592-.342.923-.734 1.149-1.45.361-1.151.276-2.307.44-3.451.035-.244.055-.496.134-.728.38-1.128.74-2.265 1.185-3.368.231-.57.69-1.05.935-1.62 1.397-3.255 2.786-6.511 4.682-9.527.754-1.2 1.297-2.533 2.012-3.762.411-.707.978-1.323 1.468-1.985 1.489-2.015 3.213-3.819 4.98-5.584.6-.599 1.283-1.111 1.898-1.697.269-.256.5-.573.678-.9.256-.472.517-.835 1.1-1.003.624-.18 1.14-.582 1.32-1.33.154-.645.643-1.01 1.33-1.028.796-.021 1.45-.354 2.122-.773 1.373-.854 2.81-1.6 4.218-2.399 1.791-1.016 3.615-1.964 5.563-2.644a43.619 43.619 0 0 1 2.039-.647c.306-.09.664-.366.89.147.017.041.156.061.226.044.817-.218 1.682-.338 2.431-.7.604-.292 1.197-.51 1.845-.605.944-.137 1.888-.343 2.84-.005.124.045.356-.008.442-.103.371-.413.754-.36 1.185-.126.109.058.291.1.384.046.532-.298 1.053-.092 1.593-.054.56.038 1.202.036 1.688-.201.81-.393 1.644-.433 2.48-.424 1.92.02 3.839.083 5.754.191 2.533.144 4.96.814 7.358 1.612a59.266 59.266 0 0 1 7.525 3.073c1.618.8 3.184 1.71 4.735 2.636 1.672.996 3.303 2.058 4.944 3.105 1.756 1.12 3.197 2.577 4.432 4.246.981 1.325 1.884 2.719 2.96 3.96.871 1.006 1.562 2.1 2.236 3.233.701 1.18 1.521 2.289 2.257 3.447 1.435 2.267 2.526 4.675 3.153 7.307.528 2.218 1.244 4.39 1.818 6.599.636 2.443 1.265 4.893 1.304 7.448.005.278.08.638.262.813.337.323.273.567.006.833-.257.254-.292.458-.052.777.162.217.25.564.223.84a151.767 151.767 0 0 1-.588 5.163c-.04.305-.22.632-.43.862-.307.334-.4.61-.14 1.018.122.188.173.466.155.695-.059.765-.13 1.534-.264 2.29-.105.59-.377 1.15-.46 1.74-.104.746-.148 1.489-.695 2.076-.247 2.681-1.717 4.83-3.084 7.008-1.094 1.745-2.375 3.376-3.401 5.157-1.008 1.747-2.38 3.146-3.75 4.568-1.083 1.128-2.168 2.257-3.303 3.332-1.075 1.02-2.215 1.971-3.326 2.954-.391.345-.794.68-1.163 1.047-.488.485-.965.933-1.656 1.163-.373.123-.67.527-.959.845-.297.327-.572.541-1.062.4-.22-.065-.541.02-.749.15-.696.437-1.368.916-2.035 1.4-.274.2-.536.32-.893.334-.306.014-.61.187-.903.315-1.05.463-2.095.941-3.146 1.402a1.225 1.225 0 0 1-.475.103c-.333-.002-.613.101-.74.412-.143.346-.394.438-.72.408-.651-.057-1.241.12-1.817.412-.464.236-.937.46-1.43-.018-.122-.117-.444-.138-.622-.068-.452.18-.898.166-1.365.14-.372-.022-.798-.057-.852.514-.005.061-.162.132-.259.159-.862.243-1.716.523-2.59.698-.5.1-1.037-.003-1.555.034-.866.063-1.728.228-2.593.24-2.274.029-4.55.05-6.823-.027a40.335 40.335 0 0 1-4.825-.438c-2.972-.463-5.929-.98-8.81-1.93-3.234-1.069-6.382-2.324-9.427-3.835-1.146-.57-2.21-1.322-3.256-2.072-2.074-1.484-4.108-3.025-6.162-4.539-.218-.159-.463-.286-.693-.429-.14-.086-.318-.143-.411-.266-.92-1.22-2.207-2.122-2.977-3.475-.136-.237-.32-.447-.484-.666-.47-.629-1.051-1.035-1.88-.945-.378.042-.584-.049-.654-.505-.135-.886-.636-1.477-1.555-1.712-.308-.079-.662-.337-.81-.614-.319-.598-.655-1.226-.512-1.85zm33.253 26.246c-.675-.17-1.395-.329-2.104-.53-2.077-.596-4.174-1.134-6.215-1.835-1.545-.53-3.025-1.26-4.514-1.946-.306-.14-.564-.44-.775-.719-1.173-1.549-2.325-3.115-3.484-4.677-.033-.043-.084-.082-.094-.131-.014-.07 0-.144.003-.216.048.013.108.013.142.044.162.147.327.294.473.456.81.891 1.62 1.783 2.418 2.684.218.245.448.355.789.33.287-.021.601.022.874.122 4.11 1.503 8.216 3.02 12.323 4.536.283.104.572.2.836.343.348.19.63.45.568.91-.05.357-.302.53-.866.601-.108.015-.217.017-.374.028zm-37.4-27.84c-.12.5-.19 1.017-.376 1.488-.195.495-.672.63-1.056.397-.353-.216-.386-.63-.05-1.058.154-.196.413-.383.197-.624-.39-.434-.115-.673.192-.932.041-.036.072-.09.118-.113.2-.104.472-.334.593-.271.17.088.259.384.325.606.045.148-.013.325-.024.489l.08.019zm3.7 9.91c.452.01 1.023.532 1.071.98.05.461-.212.732-.674.694-.45-.036-.898-.394-1.03-.82-.164-.526.088-.865.633-.853zM1.41 71.242c-.02.37-.473.815-.811.798-.336-.02-.62-.386-.591-.764.027-.36.505-.778.848-.737.32.036.573.357.554.703zm45.106 28.096c.022.215-.463.419-1.029.507-.369.059-.429-.18-.478-.408-.072-.334.228-.79.505-.834.244-.038.976.498 1.002.735zM13.242 81.8c-.059.515-.254.72-.634.665-.35-.053-.554-.375-.51-.814.031-.312.183-.524.517-.516.386.008.666.321.627.665zM1.228 58.946c.108.157.333.366.407.62.079.272-.406.687-.698.666-.243-.016-.494-.361-.493-.674.002-.289.366-.64.784-.612zm69.668 29.61a.192.192 0 0 1-.122-.029c-.7-.437-1.278.235-1.945.38-.264.056-.528.143-.795.161-.627.043-.692.015-.877-.59-.08-.263-.185-.303-.398-.248-.714.19-1.425.395-2.144.567-.258.063-.555.128-.798.059-.429-.122-.806-.371-1.298-.167-.22.093-.478-.28-.442-.56.04-.303.424-.631.626-.475.414.322.584.005.88-.164.389-.22.84-.376 1.282-.45 2.033-.336 3.976-.971 5.895-1.699 2.37-.897 4.56-2.128 6.67-3.52a3.694 3.694 0 0 1 1.116-.494c.19-.046.497.075.634.227.1.11.085.45-.013.59-.267.371-.566.745-.923 1.025-1.456 1.142-3.104 1.952-4.786 2.69-.575.25-1.175.445-1.753.693a.238.238 0 0 0-.092.084c-.089.128.015.317.17.298a.194.194 0 0 0 .046-.011c1.5-.589 2.996-1.19 4.491-1.79.1-.04.211-.074.293-.14 1.53-1.283 3.217-2.339 4.877-3.438 1.803-1.194 3.549-2.474 5.32-3.715.023-.016.04-.043.064-.053l.33-.135a.192.192 0 0 1 .261.21 1.98 1.98 0 0 1-.06.282c-.194.661-.68 1.115-1.147 1.577-2.198 2.166-4.578 4.084-7.337 5.499-.556.285-1.04.717-1.713.732-.117.003-.233.122-.346.192-1.776 1.11-3.673 1.93-5.718 2.386-.068.017-.138.018-.248.027zM14.384 54.99c-.054-.49-.12-.978-.16-1.469-.022-.273-.056-.563.009-.82.305-1.214.194-2.461.317-3.686.113-1.115.365-2.216.57-3.32.23-1.239.437-2.484.727-3.71.334-1.416.76-2.802 1.456-4.1.36-.67.565-1.426.855-2.138.185-.456.385-.907.6-1.35.16-.325.43-.538.797-.41.36.124.488.446.392.806-.19.714-.365 1.437-.631 2.126-.335.868-.785 1.692-1.13 2.557-.59 1.478-1.15 2.973-1.332 4.567-.11.97-.092 1.958-.248 2.92-.31 1.897-.604 3.798-.68 5.72-.047 1.177.043 2.36.068 3.54.004.138-.024.277-.009.412.044.388-.123.722-.478.734-.272.01-.64-.18-.812-.403-.258-.336-.44-.753-.368-1.229.037-.242.006-.494.006-.742l.051-.005zM55.44 89.64c-2.604-.005-5.186-.298-7.766-.617-.542-.068-1.08-.18-1.614-.292a.967.967 0 0 1-.425-.22c-.428-.38-.389-.758.152-.91.49-.138 1.04-.234 1.531-.151 2.3.386 4.62.535 6.942.634 1.034.045 2.073-.036 3.11-.029.405.002.818.057 1.215.144.265.057.597.223.507.537-.07.247-.33.557-.56.614-.633.16-1.293.22-1.946.283-.38.037-.764.007-1.146.007zm45.67-52.081c-.009.481-.194.719-.687.688-.435-.028-.458.136-.383.473.053.24.095.488.09.73-.005.232.03.522-.297.602-.267.063-.711-.184-.77-.478a1.318 1.318 0 0 1 .054-.705c.07-.185.148-.273-.004-.488-.54-.764-.522-.885.226-1.44.317-.235.19-.515.027-.6-.775-.408-.685-1.195-.828-1.85-.143-.649.468-1.178 1.11-1.027.177.043.408.212.456.372.355 1.18.669 2.37.994 3.56.014.05.008.108.012.163zM25.188 24.536a.52.52 0 0 1 .175.595c-.054.154-.101.281-.181.381-.85 1.07-1.72 2.123-2.585 3.18a.845.845 0 0 1-.176.171c-.279.191-.758.175-.903-.057-.172-.275-.177-.572.049-.84.894-1.058 1.775-2.13 2.699-3.164.171-.192.508-.284.78-.318.046-.005.092.017.142.052zM50.881 9.98h.806c.261.003.54.06.538.366-.001.209-.105.512-.263.61-.962.59-2.05.698-3.143.641-.514-.026-.74-.716-.345-1.05.273-.232.67-.321 1.013-.469.047-.02.108-.007.162-.01l1.232-.088zm5.606.729c-.264.046-.525.11-.79.133-.523.05-.896-.29-.909-.806-.012-.449.265-.738.788-.734.516.006 1.032.079 1.548.126.372.034.618.25.67.609.06.412-.236.582-.58.66-.233.053-.474.073-.711.108zm3.901.714c-.172-.014-.473-.024-.77-.068-.388-.057-.694-.365-.697-.689-.003-.354.211-.534.523-.651.223-.084.439-.2.645-.322.39-.232.721-.194 1.012.142.07.082.11.19.173.279.208.295.427.57.179.967-.234.37-.576.367-1.065.342zM27.88 74.413c-.052.59-.255 1.024-.649 1.355-.251.211-.546.267-.832.088-.268-.167-.148-.42-.112-.666.04-.28.061-.578.01-.854-.078-.408.084-.835.453-1.002.303-.137.681 0 .89.378.127.231.176.507.24.7zm31.385 14.406c-.009-.505.486-.856.794-.645.242.165.37.165.543-.027a.207.207 0 0 1 .067-.049c.436-.212.8-.198.972.054.21.306.057.584-.107.835-.194.3-.66.484-.924.317-.27-.17-.486-.224-.81-.15-.164.038-.4-.243-.535-.335zm-1.933-84.92c.59.118 1.047.176 1.482.308.376.115.537.467.405.772-.143.33-.426.411-.75.339-.418-.094-.852-.166-1.237-.34-.164-.076-.335-.41-.3-.586.044-.213.302-.382.4-.493zM20.063 30.875c-.018-.78.428-1.153.732-1.58.157-.222.769-.142.871.11.077.185.033.483-.07.666-.196.35-.443.683-.728.961-.124.119-.407.136-.596.096-.119-.024-.198-.239-.209-.253zM91.65 74.046c.046-.613.756-1.4 1.209-1.417.178-.007.443.11.521.252.08.149.05.438-.05.59-.196.304-.446.59-.726.818-.165.134-.46.237-.642.18-.166-.054-.258-.343-.312-.423zM43.073 11.974c.263.204.532.319.643.522.16.297-.077.543-.333.652a4.985 4.985 0 0 1-1.095.312c-.1.017-.307-.148-.334-.26-.045-.188-.063-.496.046-.587.3-.247.672-.41 1.073-.639zm44.453 7.38c.08.053.236.118.34.232.202.22.37.47.561.703.222.269.144.504-.072.726-.239.246-.515.225-.723 0a4.754 4.754 0 0 1-.716-.967c-.185-.348.135-.725.61-.693zM21.219 63.378c-.07.233-.11.515-.243.74-.075.127-.317.238-.465.215-.148-.021-.38-.212-.384-.335-.014-.456.03-.918.1-1.37.02-.128.225-.34.302-.322.192.046.425.159.52.319.118.2.114.472.17.753zm32.34-52.54c-.344-.005-.779-.481-.755-.826.027-.404.406-.71.866-.698.39.01.72.361.7.747-.02.4-.42.783-.81.776zM30.973 88.214c-.008.544-.595.973-.983.77-.218-.115-.38-.358-.534-.569-.165-.224-.3-.53-.06-.733.127-.106.432-.025.65.014.21.035.426.094.61.198.146.082.246.246.317.32zm9.673-69.6c-.018.363-.566.807-.944.763-.344-.04-.648-.345-.645-.644.005-.353.534-.772.953-.754.338.015.65.326.636.634zm-1.39 71.016c.274.005.537.17.701.484.135.258.055.479-.169.64-.39.279-1.232-.067-1.333-.54-.063-.3.283-.582.801-.584zm-16.7-54.365c.02.343-.279.734-.593.777-.282.037-.555-.214-.59-.546-.04-.375.263-.835.578-.875.27-.035.585.3.605.644zm4.95-12.654c.014.232-.188.496-.399.524-.19.026-.374-.144-.398-.368-.027-.253.177-.562.389-.59.182-.023.394.203.408.434zm58.964-3.851a.594.594 0 0 1-.574-.659c.034-.296.328-.535.636-.516.312.019.581.288.585.582.003.339-.29.609-.647.593zM34.87 88.08c.544.018.817.256.813.577-.005.3-.275.523-.612.503-.345-.02-.705-.348-.603-.613.08-.211.309-.364.402-.467zm-7.01-4.646c.107.144.335.342.415.589.09.277-.242.534-.574.505-.378-.034-.582-.228-.573-.546.01-.306.281-.564.733-.548zm32.085-69.268c.014.31-.182.544-.48.53-.288-.013-.55-.106-.554-.461-.002-.295.102-.544.435-.592.31-.045.586.206.6.523zm33.73 14.347c.03.018.06.029.072.05.36.604.718 1.21 1.065 1.824.02.034-.08.192-.104.187-.379-.077-1.234-1.594-1.125-1.988.008-.031.062-.051.092-.073zm-3.548-5.228c-.433-.003-1.12-.794-1.076-1.222.006-.06.212-.17.271-.142.51.237.689.734.884 1.21.016.037-.057.112-.079.154zm2.408 52.823c.32.164.34.624.052.84a.682.682 0 0 1-.207.114c-.256.08-.558-.241-.508-.501.054-.29.241-.538.55-.49a.345.345 0 0 1 .113.037zm-9.501-54.497c-.285.2-.45.39-.651.443-.234.062-.629-.343-.518-.483.148-.186.398-.346.627-.389.124-.022.296.224.542.429zm-18.11-10.58c-.548-.073-1.006-.12-1.458-.207-.084-.016-.14-.18-.209-.277.089-.04.182-.124.264-.113.457.057.912.127 1.364.216.115.023.214.134.32.205-.117.073-.232.146-.282.176zM24.83 45.63l-1.144 5.387h.988l1.34-.063zm4.737 9.293c-.814 1.22-1.335 1.807-1.56 1.767-.196 0-.39-.246-.578-.736a39.624 39.624 0 0 1-.393-1.22l-.305-.965-.24-.86h-3.174l-.066.5a7.94 7.94 0 0 0-.13.982l-.055.876-1.188 1.004c-.045.042-.307.222-.786.543.341-.955.65-2.03.927-3.221l.611-2.64c.174-.76.385-1.654.632-2.68.13-.553.295-1.357.492-2.41l.337-1.827.208-1.186c.276-.276.716-.7 1.32-1.267.087-.083.17-.069.25.043.08.11.134.255.164.436l.12.788c.059.403.221 1.213.491 2.432l.698 3.199c.465 2.134.897 3.776 1.298 4.925.218.638.396.977.535 1.018l.305.104zm10.897.146l-.295.332-1.156 1.454-.207-1.121a67.629 67.629 0 0 1-.873-6.546l-.36 1.059-.578 1.767-.25.666c-.131.36-.332.795-.6 1.309-.393.762-.76 1.141-1.102 1.141-.415 0-.913-.553-1.495-1.662a26.243 26.243 0 0 1-.862-1.745l-.73-1.6a47.304 47.304 0 0 0-.218 4.474l-.459.498c-.385.413-.847 1.002-1.385 1.76l.327-3.566.197-1.908.458-4.294-.284-.932c-.334-1.108-.502-1.892-.502-2.35 0-.235.047-.45.143-.643l.142-.228.622-.707.546-.645c.065.762.203 1.545.415 2.346.066.263.28.984.643 2.161.77 2.523 1.563 4.31 2.376 5.364.299.388.572.582.82.582.61 0 1.118-1.095 1.526-3.284a23.937 23.937 0 0 0 .414-4.55v-.581l1.243-1.331.993-1.123c-.109.541-.305 1.512-.59 2.91l-.184.893c.181 3.007.53 5.736 1.047 8.188.188.9.284 1.426.284 1.58 0 .096-.023.207-.066.332zm3.825-9.438l-1.144 5.386h.99l1.339-.063zm4.738 9.292c-.815 1.22-1.335 1.807-1.56 1.767-.197 0-.389-.246-.579-.736a42.857 42.857 0 0 1-.392-1.22l-.306-.965-.24-.86h-3.174l-.065.5c-.066.333-.11.662-.13.982l-.056.876-1.188 1.004c-.044.042-.306.222-.786.543.342-.955.65-2.03.927-3.221l.611-2.64c.175-.76.385-1.654.632-2.68a54.42 54.42 0 0 0 .492-2.41l.338-1.827.207-1.186c.276-.276.716-.7 1.32-1.267.087-.083.17-.069.251.043.08.11.134.255.163.436l.12.788c.059.403.222 1.213.492 2.432l.697 3.199c.466 2.134.899 3.776 1.298 4.925.219.638.397.977.535 1.018l.305.104zm1.57-9.724a.467.467 0 0 1-.403.228c-.313 0-.571-.312-.775-.934l-.065-.271c.16-.291.469-.755.927-1.393l.35-.415.152.311c.072.152.2.402.381.748.095.14.219.25.371.333zm.786 9.662a15.502 15.502 0 0 0-1.506 1.974c0-1.87-.004-3.027-.01-3.471l-.11-3.013c-.036-1.094-.185-1.64-.447-1.64a.484.484 0 0 0-.305.123l-.098.084-.153-.416.6-.644c.029-.027.269-.346.72-.955.37-.5.595-.748.676-.748.204 0 .345.16.425.477.044.166.073.583.088 1.246l.076 3.263zm4.098-9.23l-1.144 5.386h.989l1.34-.063zm4.736 9.292c-.814 1.22-1.333 1.807-1.56 1.767-.195 0-.388-.246-.577-.736a41.4 41.4 0 0 1-.392-1.22l-.306-.965-.24-.86h-3.175l-.065.5c-.065.333-.11.662-.13.982l-.055.876-1.189 1.004c-.044.042-.306.222-.785.543.341-.955.65-2.03.926-3.221l.612-2.64c.174-.76.385-1.654.633-2.68.13-.553.293-1.357.49-2.41l.338-1.827.207-1.186a65.09 65.09 0 0 1 1.32-1.267c.088-.083.17-.069.252.043.079.11.134.255.163.436l.12.788c.058.403.222 1.213.49 2.432l.699 3.199c.465 2.134.898 3.776 1.298 4.925.218.638.396.977.534 1.018l.306.104zm7.527-13.237l-1.134 2.121c-.182.332-.51.54-.982.622-.123.015-.301.028-.535.042h-.665l-.033 2.494c-.014.9-.003 2.202.033 3.906.022 1.234.062 2.444.12 3.637a19.413 19.413 0 0 0-1.854 2.41l.054-1.245V44.43c-.318 0-.8-.055-1.445-.166-.644-.11-1.126-.166-1.446-.166l.601-1.04c.218-.346.44-.657.665-.935l.175-.206.164-.23 1.188.145c.08.015.917-.013 2.51-.082a63.414 63.414 0 0 1 2.584-.063zm7.298 6.34v.352c0 1.732-.324 3.324-.97 4.78l-.295.664c-.044.11-.164.333-.36.665-.902 1.579-1.819 2.368-2.75 2.368-.9 0-1.505-.386-1.81-1.162l-.512-1.31c-.38-.97-.568-2.21-.568-3.719 0-1.233.284-2.423.85-3.575.226-.457.517-.92.873-1.392l.154-.166.217.291c-.327.817-.49 1.766-.49 2.846 0 .943.136 1.912.409 2.91.272.997.61 1.773 1.014 2.327s.78.832 1.129.832c.538 0 .935-.443 1.19-1.33.195-.707.293-1.608.293-2.702 0-2.272-.385-4.107-1.155-5.507-.422-.775-.873-1.218-1.354-1.33a1.487 1.487 0 0 0-.262-.02c-.225 0-.53.069-.915.208l-.175.063-.142-.417.437-.478c.873-.955 1.548-1.432 2.028-1.432.357 0 .71.13 1.059.393.93.706 1.541 1.752 1.832 3.138.182.873.273 1.774.273 2.702zm7.58 1.848c.03.22.044.45.044.685 0 .887-.24 1.884-.72 2.994a7.967 7.967 0 0 1-.873 1.536l-.391.458-.197.227-.186.189c-.48.485-.941.726-1.384.726-.641 0-1.201-.38-1.68-1.142-.387-.583-.765-1.483-1.136-2.701-.21-.693-.345-1.6-.403-2.723 0-2.271.313-4.031.938-5.277.415-.832.97-1.6 1.67-2.307.414-.414.948-.686 1.602-.81.153-.029.31-.043.47-.043l.61.126c.488.15.731.484.731.997 0 .249-.061.45-.184.602l-.904 1.101-.282.312c-.14-.332-.37-.7-.697-1.101-.188-.235-.446-.353-.773-.353-.334 0-.631.2-.892.603-.261.401-.44.914-.539 1.537a12.05 12.05 0 0 0-.147 1.87c0 .652.055 1.38.163 2.183l.1.726c.15 1.122.497 2.127 1.038 3.012.54.887 1.107 1.33 1.702 1.33.297 0 .528-.176.69-.529.164-.354.245-.814.245-1.382 0-.18-.01-.387-.033-.623l-.076-.499c-.153-1.011-.52-1.67-1.102-1.974l-.12-.061.317-.478c.066-.126.269-.41.61-.853.19-.25.422-.374.699-.374.552 0 .916.672 1.09 2.016zm7.789-1.849v.353c0 1.732-.324 3.324-.971 4.78l-.294.664c-.044.11-.164.333-.36.665-.902 1.579-1.819 2.368-2.75 2.368-.9 0-1.504-.386-1.81-1.162l-.513-1.31c-.378-.97-.567-2.21-.567-3.719 0-1.233.284-2.423.85-3.575.226-.457.517-.92.874-1.392l.152-.166.219.291c-.328.817-.492 1.766-.492 2.846 0 .943.137 1.912.41 2.91.272.997.61 1.773 1.014 2.327s.78.832 1.13.832c.537 0 .933-.443 1.188-1.33.196-.707.294-1.608.294-2.702 0-2.272-.385-4.107-1.156-5.507-.422-.775-.873-1.218-1.353-1.33a1.469 1.469 0 0 0-.261-.02c-.226 0-.531.069-.916.208l-.174.063-.143-.417.436-.478c.873-.955 1.55-1.432 2.03-1.432.355 0 .708.13 1.058.393.931.706 1.541 1.752 1.833 3.138.18.873.272 1.774.272 2.702z"/></g></g></svg>